<?xml version="1.0" encoding="utf-8"?>
<!-- Generator: Adobe Illustrator 26.5.0, SVG Export Plug-In . SVG Version: 6.00 Build 0)  -->
<svg version="1.1" xmlns="http://www.w3.org/2000/svg" xmlns:xlink="http://www.w3.org/1999/xlink" x="0px" y="0px"
	 viewBox="0 0 50 50" style="enable-background:new 0 0 50 50;" xml:space="preserve">
<style type="text/css">
	.st0{display:none;}
	.st1{display:inline;fill:#FFBB63;}
	.st2{fill:#00B5E8;}
	.st3{fill:#F49937;}
	.st4{fill:#FFFFFF;}
	.st5{fill:#017CC0;}
	.st6{fill:#65D1EE;}
	.st7{fill:#FBCC55;}
</style>
<g id="Layer_2" class="st0">
	<rect class="st1" width="50" height="50"/>
</g>
<g id="Layer_1">
	<path class="st2" d="M1.9,21.3c0.1-0.6,0.2-1.3,0.3-1.9c0.4-2.1,1.1-4,2.1-5.9c0.3-0.5,0.6-0.6,1-0.4c0.4,0.2,0.4,0.6,0.2,1.1
		c-1.1,2.1-1.8,4.3-2.1,6.7c-0.5,4.7,0.5,9,3.1,12.9c1,1.5,2.3,2.9,3.7,4.1c0.1,0.1,0.2,0.2,0.4,0.3c0,0,0.1,0,0.1,0
		c0.3-0.7,0.5-1.5,0.8-2.2c0.1-0.2,0.2-0.3,0.2-0.5c0.3-0.5,0.6-0.7,1-0.4c0.4,0.2,0.4,0.6,0.2,1.1c-0.4,0.9-0.7,1.8-0.8,2.7
		c0,0.1,0.1,0.4,0.2,0.4c1.9,1.2,4,2.1,6.2,2.5c0.1,0,0.1,0,0.2,0c0.2-1,0.3-2,0.5-3c0.2-1.3,0.5-2.7,0.7-4c0-0.3,0-0.7,0-1
		c-0.1-0.6-0.3-1.2-0.4-1.8c-1.1,0-2.2,0.3-3.2,0.8c-0.6,0.3-1.1,0.7-1.7,1.1c-0.4,0.3-0.8,0.3-1.1,0c-0.3-0.3-0.2-0.7,0.2-1
		c1.2-1,2.5-1.7,4-2c0.1,0,0.1,0,0.3-0.1c-0.1-0.1-0.2-0.2-0.2-0.2c-1.2-0.8-2-1.9-2.5-3.2c-0.1-0.2-0.1-0.3-0.4-0.3
		c-1.5-0.2-2.5-1.3-2.7-2.8c-0.1-1.4,0.9-2.6,2.3-3c0.1,0,0.1,0,0.2-0.1c0-0.2,0-0.5,0-0.7c-1.3-0.6-2.3-1.5-3.3-2.6
		c-0.2-0.2-0.4-0.5-0.2-0.8c0.2-0.4,0.5-0.4,0.8-0.4c0.6,0,1.2-0.1,1.8-0.4c-1.2-0.5-1.7-1.5-2-2.6c-0.1-0.7,0.1-1.1,0.9-1
		c1.5,0.2,2.9-0.3,4.2-1c1-0.6,2.1-1.2,3.2-1.6c2.3-0.9,4.5-0.3,6.5,1.1c0.2,0.2,0.5,0.3,0.7,0.3c2.3,0.2,3.7,1.6,3.9,3.9
		c0.1,1.8-0.2,3.4-1.4,4.8c-0.2,0.3-0.1,0.7-0.2,1.1c0.2,0.1,0.3,0.1,0.4,0.1c1.4,0.4,2.3,1.7,2.1,3.1c-0.1,1.4-1.2,2.5-2.6,2.7
		c-0.1,0-0.3,0.1-0.4,0.2c-0.6,1.5-1.5,2.6-2.9,3.6c2.6,0.5,4.5,1.9,6,4c1.9-2.3,4.3-3.5,7.3-3.5c0.9-1.9,1.5-3.9,1.7-6.1
		c0.4-4.5-0.5-8.6-3-12.4c-3.1-4.7-7.4-7.6-12.9-8.4c-7.4-1.1-13.4,1.4-18.1,7.2c0,0-0.1,0.1-0.1,0.1c-0.3,0.4-0.7,0.5-1,0.2
		c-0.3-0.3-0.4-0.7-0.1-1c0.9-1,1.7-2,2.7-2.9c2.7-2.5,5.9-4.1,9.5-4.8C24.6,2,30.4,3.4,35.5,7.7c3.9,3.3,6.2,7.5,6.9,12.5
		c0.6,3.7,0.1,7.3-1.3,10.8C41,31,41,31.2,40.9,31.3c0,0,0,0,0,0.1c0.2,0.1,0.5,0.1,0.7,0.2c6,1.7,8.4,8.8,4.6,13.8
		c-0.4,0.6-0.8,0.7-1.2,0.4c-0.4-0.3-0.3-0.6,0.1-1.2c1.8-2.5,2.1-5.2,0.6-8c-1.4-2.7-3.8-4.1-6.9-4c-3.7,0.1-6.9,3.2-7.1,6.9
		c-0.2,3.9,2.4,7.3,6.2,7.9c1.8,0.3,3.5,0,5-0.9c0.2-0.1,0.6-0.1,0.8,0c0.2,0.1,0.3,0.4,0.3,0.6c0,0.2-0.2,0.4-0.4,0.6
		c-1,0.6-2.1,1-3.2,1.1c-0.1,0-0.1,0.1-0.2,0.1c-0.7,0-1.4,0-2.2,0c-0.2-0.1-0.3-0.1-0.5-0.2c-1.3-0.2-2.5-0.8-3.6-1.6
		c-1.8-1.4-2.9-3.2-3.4-5.4c0,0-0.1,0-0.1,0c-0.1,0-0.2,0.1-0.3,0.1c-4,1.6-8,2-12.2,1.1C10,41.3,3.7,34.8,2.3,26.9
		c-0.1-0.7-0.2-1.3-0.4-2C1.9,23.7,1.9,22.5,1.9,21.3z M21.4,18.2c-1.6,1.4-3.4,2.2-5.4,2.4c0,1,0,2,0,3c0,0.8,0,1.6,0.2,2.4
		c0.6,2.8,3.3,4.8,6.2,4.7c3-0.2,5.5-2.4,5.7-5.3c0.1-1.6,0.1-3.2,0.1-4.9c0-0.1,0-0.2-0.1-0.3c-0.6-0.6-1.2-1.3-1.9-2
		c0,0,0,0.1-0.1,0.1c-1,1.1-2.2,1.6-3.6,1.9c-0.7,0.1-1-0.2-1-0.9C21.5,18.9,21.4,18.6,21.4,18.2z M13.2,17.8
		c0.2,0.2,0.4,0.3,0.6,0.5c0.8,0.7,1.7,1.1,2.8,0.8c1.7-0.3,3.1-1.1,4.2-2.3c0.5-0.5,0.9-0.5,1.3,0.1c0.3,0.5,0.6,1.1,0.8,1.7
		c0,0,0.1,0,0.1,0c1.1-0.4,1.9-1,2.5-2c0.4-0.6,0.9-0.6,1.3,0c0.1,0.1,0.2,0.3,0.3,0.4c0.5,0.6,1,1.3,1.5,1.9c0.8-1.1,1.1-2.3,1-3.5
		c-0.1-1.9-1-2.8-2.9-2.9c-0.4,0-0.7-0.1-1-0.4c-1.6-1.4-3.4-1.9-5.4-1.1c-1,0.4-2,0.9-3,1.5c-0.9,0.5-1.8,1-2.9,1.2
		c-0.4,0.1-0.9,0.1-1.3,0.1c0,0.1,0,0.1,0,0.2c0.4,0.7,1,0.9,1.7,1c0.2,0,0.6,0.2,0.7,0.4c0.1,0.2,0,0.6-0.1,0.8
		c-0.3,0.4-0.7,0.8-1.1,1.1C14.1,17.4,13.6,17.6,13.2,17.8z M25.5,41.7c0.1,0,0.1,0,0.2,0c1.5-0.3,3-0.7,4.4-1.4
		c0.1-0.1,0.2-0.3,0.2-0.4c0-1.3,0.3-2.5,0.9-3.7c0.1-0.1,0.1-0.4,0-0.5c-0.6-1.1-1.5-2-2.6-2.7c-1.2-0.7-2.4-1.1-3.8-1.1
		c-0.1,0.6-0.3,1.2-0.4,1.8c-0.1,0.3-0.1,0.5,0,0.8C24.7,36.9,25.1,39.3,25.5,41.7z M24.2,42c-0.4-2.4-0.8-4.8-1.2-7.1
		c-0.7,0-1.3,0-1.9,0c-0.4,2.4-0.8,4.7-1.2,7.1C21.4,42,22.8,42,24.2,42z M23.4,31.9c-0.9,0-1.7,0-2.6,0c0.1,0.5,0.2,1,0.3,1.5
		c0.7,0,1.3,0,2,0c0.1-0.4,0.2-0.8,0.3-1.2C23.4,32.2,23.4,32.1,23.4,31.9z M14.6,22.5c-0.7,0.1-1.2,0.9-1.2,1.6
		c0.1,0.7,0.6,1.3,1.2,1.3C14.6,24.5,14.6,23.5,14.6,22.5z M29.5,25.5c0.6-0.1,1.1-0.7,1.1-1.4c0-0.7-0.4-1.3-1.1-1.6
		C29.5,23.5,29.5,24.5,29.5,25.5z"/>
	<path class="st3" d="M44.2,38.9c-0.2,0.3-0.3,0.7-0.5,0.9c-0.2,0.3-0.5,0.6-0.8,0.8c-0.3,0.2-0.4,0.5-0.3,0.9
		c0.1,0.4,0.1,0.7,0.2,1.1c0.1,0.6-0.1,1-0.5,1.4c-0.5,0.3-1,0.4-1.5,0.2c-0.4-0.2-0.8-0.4-1.2-0.6c-0.2-0.1-0.4-0.1-0.6,0
		c-0.4,0.2-0.8,0.4-1.2,0.6c-0.5,0.3-1.1,0.2-1.6-0.1c-0.5-0.4-0.7-0.9-0.5-1.5c0.3-1.1,0.2-1.9-0.8-2.6c-0.5-0.4-0.7-0.9-0.5-1.5
		c0.2-0.6,0.6-1,1.2-1c1.2,0,1.9-0.5,2.3-1.7c0.2-0.6,0.7-0.9,1.3-0.9c0.6,0,1,0.3,1.3,0.8c0.2,0.5,0.4,1.1,0.8,1.4
		c0.4,0.3,1,0.2,1.5,0.3C43.6,37.6,44.1,38.1,44.2,38.9z M36.9,43.1c0.4-0.2,0.8-0.4,1.1-0.6c0.8-0.5,1.5-0.5,2.3,0
		c0.3,0.2,0.6,0.3,1.1,0.6c-0.1-0.5-0.1-0.8-0.2-1.2c-0.3-0.9,0-1.7,0.7-2.3c0.3-0.2,0.5-0.5,0.8-0.8c-0.4-0.1-0.7-0.2-1-0.2
		c-1.1,0-1.8-0.5-2.1-1.5c-0.1-0.3-0.3-0.6-0.5-0.9c-0.2,0.4-0.4,0.8-0.5,1.1c-0.3,0.9-1,1.3-1.9,1.4c-0.4,0-0.7,0.1-1.2,0.2
		c0.4,0.4,0.7,0.7,1,1c0.6,0.5,0.7,1.1,0.6,1.8C37.1,42.1,37,42.5,36.9,43.1z"/>
	<path class="st4" d="M21.4,18.2c0.1,0.4,0.1,0.7,0.1,1c0,0.7,0.3,1.1,1,0.9c1.4-0.3,2.6-0.8,3.6-1.9c0.1-0.1,0.1-0.1,0.1-0.1
		c0.7,0.7,1.3,1.3,1.9,2c0.1,0.1,0.1,0.2,0.1,0.3c0,1.6,0.1,3.2-0.1,4.9c-0.2,2.9-2.7,5.2-5.7,5.3c-2.9,0.2-5.6-1.8-6.2-4.7
		C16,25.1,16,24.3,16,23.5c0-1,0-2,0-3C18,20.3,19.8,19.6,21.4,18.2z M22.3,27.4c0.9,0,1.8-0.3,2.4-1.2c0.3-0.4,0.3-0.9-0.1-1.1
		c-0.3-0.2-0.7-0.1-1,0.3c-0.6,0.8-2.2,0.8-2.7,0c-0.3-0.4-0.7-0.6-1-0.3c-0.4,0.2-0.4,0.7-0.1,1.1C20.4,27.1,21.2,27.4,22.3,27.4z
		 M18.1,22.5c0,0.3,0,0.5,0,0.8c0,0.4,0.3,0.7,0.7,0.7c0.4,0,0.7-0.2,0.7-0.6c0-0.6,0-1.1,0-1.7c0-0.4-0.3-0.6-0.7-0.6
		c-0.4,0-0.6,0.2-0.6,0.6C18.1,22,18.1,22.2,18.1,22.5z M26,22.5c0-0.3,0-0.5,0-0.8c0-0.4-0.3-0.7-0.7-0.7c-0.4,0-0.7,0.3-0.7,0.7
		c0,0.5,0,1,0,1.5c0,0.4,0.3,0.7,0.7,0.7c0.4,0,0.7-0.3,0.7-0.7C26,23,26,22.8,26,22.5z"/>
	<path class="st5" d="M13.2,17.8c0.4-0.2,0.9-0.3,1.3-0.6c0.4-0.3,0.8-0.7,1.1-1.1c0.1-0.2,0.2-0.6,0.1-0.8C15.6,15.1,15.3,15,15,15
		c-0.8,0-1.3-0.3-1.7-1c0,0,0-0.1,0-0.2c0.4,0,0.9-0.1,1.3-0.1c1.1-0.2,2-0.7,2.9-1.2c1-0.5,1.9-1.1,3-1.5c2-0.8,3.8-0.3,5.4,1.1
		c0.3,0.2,0.6,0.4,1,0.4c1.9,0,2.8,1,2.9,2.9c0.1,1.2-0.2,2.4-1,3.5c-0.5-0.7-1-1.3-1.5-1.9c-0.1-0.1-0.2-0.3-0.3-0.4
		c-0.4-0.6-0.9-0.6-1.3,0c-0.6,1-1.5,1.6-2.5,2c-0.1,0-0.1,0-0.1,0c-0.3-0.6-0.5-1.2-0.8-1.7c-0.4-0.6-0.8-0.6-1.3-0.1
		c-1.2,1.2-2.6,2-4.2,2.3c-1.1,0.2-2-0.1-2.8-0.8C13.6,18.1,13.4,17.9,13.2,17.8z"/>
	<path class="st5" d="M25.5,41.7c-0.4-2.4-0.8-4.8-1.2-7.2c0-0.3,0-0.5,0-0.8c0.1-0.6,0.3-1.2,0.4-1.8c1.4,0,2.6,0.4,3.8,1.1
		c1.1,0.7,2,1.6,2.6,2.7c0.1,0.1,0.1,0.4,0,0.5c-0.5,1.2-0.8,2.4-0.9,3.7c0,0.2-0.1,0.4-0.2,0.4c-1.4,0.7-2.9,1.1-4.4,1.4
		C25.7,41.8,25.6,41.8,25.5,41.7z"/>
	<path class="st4" d="M24.2,42c-1.4,0-2.8,0-4.3,0c0.4-2.4,0.8-4.8,1.2-7.1c0.6,0,1.2,0,1.9,0C23.4,37.2,23.8,39.5,24.2,42z"/>
	<path class="st6" d="M23.4,31.9c0,0.1,0,0.2,0,0.3c-0.1,0.4-0.2,0.8-0.3,1.2c-0.6,0-1.3,0-2,0c-0.1-0.5-0.2-1-0.3-1.5
		C21.6,31.9,22.5,31.9,23.4,31.9z"/>
	<path class="st4" d="M14.6,22.5c0,1,0,2,0,2.9c-0.6-0.1-1.1-0.6-1.2-1.3C13.4,23.4,13.9,22.6,14.6,22.5z"/>
	<path class="st4" d="M29.5,25.5c0-1,0-2,0-3c0.8,0.2,1.2,0.8,1.1,1.6C30.6,24.8,30.2,25.3,29.5,25.5z"/>
	<path class="st7" d="M36.9,43.1c0.1-0.5,0.1-1,0.2-1.4c0.2-0.7,0-1.3-0.6-1.8c-0.3-0.3-0.6-0.6-1-1c0.4-0.1,0.8-0.2,1.2-0.2
		c0.9,0,1.6-0.5,1.9-1.4c0.1-0.3,0.3-0.7,0.5-1.1c0.2,0.4,0.4,0.6,0.5,0.9c0.4,1,1,1.5,2.1,1.5c0.3,0,0.6,0.1,1,0.2
		c-0.3,0.3-0.6,0.6-0.8,0.8c-0.8,0.6-1,1.3-0.7,2.3c0.1,0.3,0.1,0.7,0.2,1.2c-0.4-0.2-0.8-0.4-1.1-0.6c-0.8-0.5-1.5-0.6-2.3,0
		C37.7,42.7,37.4,42.8,36.9,43.1z"/>
	<path class="st2" d="M22.3,27.4c-1.1,0-2-0.3-2.6-1.2c-0.3-0.4-0.3-0.9,0.1-1.1c0.4-0.2,0.7-0.1,1,0.3c0.6,0.8,2.2,0.8,2.7,0
		c0.3-0.4,0.7-0.6,1-0.3c0.4,0.2,0.4,0.7,0.1,1.1C24.1,27.1,23.3,27.4,22.3,27.4z"/>
	<path class="st2" d="M18.1,22.5c0-0.3,0-0.5,0-0.8c0-0.4,0.3-0.6,0.6-0.6c0.4,0,0.7,0.2,0.7,0.6c0,0.6,0,1.1,0,1.7
		c0,0.4-0.3,0.6-0.7,0.6c-0.4,0-0.6-0.3-0.7-0.7C18.1,23,18.1,22.8,18.1,22.5z"/>
	<path class="st2" d="M26,22.5c0,0.2,0,0.5,0,0.7c0,0.4-0.3,0.7-0.7,0.7c-0.4,0-0.7-0.3-0.7-0.7c0-0.5,0-1,0-1.5
		c0-0.4,0.3-0.7,0.7-0.7c0.4,0,0.7,0.3,0.7,0.7C26,22,26,22.3,26,22.5z"/>
	<path class="st5" d="M11.6,38.9c0,0.2,2.6,1.7,2.7,1.7c1.4,0.7,2.5,1,4.1,1.1c0.6,0,0.3,0.1,0.4,0.1c0.4-2.4,0.8-5.4,1.2-7.8
		c0-0.3,0-0.5,0-0.8c-0.1-0.6-0.3-1.2-0.4-1.8c-1.4,0-2.6,0.4-3.8,1.1c-1.1,0.7-2,1.6-2.6,2.7"/>
</g>
</svg>
