<?xml version="1.0" encoding="utf-8"?>
<!-- Generator: Adobe Illustrator 26.5.0, SVG Export Plug-In . SVG Version: 6.00 Build 0)  -->
<svg version="1.1" id="Layer_1" xmlns="http://www.w3.org/2000/svg" xmlns:xlink="http://www.w3.org/1999/xlink" x="0px" y="0px"
	 viewBox="0 0 50 50" style="enable-background:new 0 0 50 50;" xml:space="preserve">
<style type="text/css">
	.st0{display:none;}
	.st1{display:inline;fill:#FFBB63;}
	.st2{fill:#00B5E8;}
	.st3{fill:#017CC0;}
	.st4{fill:#FFFFFF;}
	.st5{fill:#65D1EE;}
</style>
<g id="Layer_2_00000119109948890343317050000008090535605774827453_" class="st0">
	<rect class="st1" width="50" height="50"/>
</g>
<g id="Layer_1_00000080176439303822241960000012835930397784247425_">
	<path class="st2" d="M12.8,24.4c0.8,0,1.5,0,2.3,0c0.6,0,0.8,0.2,0.8,0.8c0.1,4.3,2.9,7.7,7.1,8.7c5.1,1.2,10.4-2.4,11-7.6
		c0-0.4,0.1-0.7,0.1-1.1c0-0.5,0.2-0.7,0.7-0.7c0.8,0,1.5,0,2.3,0c0-0.2,0-0.3,0-0.5c0-2.3,0-4.7,0-7c0-0.7,0.2-0.8,0.9-0.8
		c0.2,0,0.3,0,0.5,0c0.6,0,1,0,1.4-0.6c0.4-0.7,1.3-0.8,2-0.5s1.2,1.1,1.1,1.8c-0.1,0.8-0.7,1.5-1.4,1.6c-0.8,0.2-1.5-0.2-1.9-0.8
		c-0.1-0.1-0.1-0.2-0.2-0.3c-0.4,0-0.7,0-1.1,0c0,2.4,0,4.7,0,7.1c0.6,0,1.1,0,1.7,0c0-0.9,0-1.7,0-2.6c0-0.4,0-0.8,0-1.2
		c0-0.4,0.2-0.6,0.6-0.6c0.1,0,0.2,0,0.2,0c0.6,0,1,0,1.3-0.6c0.4-0.7,1.3-0.8,2-0.6c0.7,0.3,1.2,1,1.2,1.8s-0.6,1.4-1.3,1.7
		c-0.8,0.2-1.6-0.1-2-0.7c-0.2-0.4-0.5-0.5-0.9-0.4c0,1.1,0,2.2,0,3.3c1,0,2,0,3,0c1.2,0,1.2,0,1.2,1.2c0,0.4,0,0.8,0,1.2
		c0,1.2-0.8,2-1.9,2c-1.8,0.1-3.2,1.2-3.6,2.9c-0.3,1.3-0.1,2.5,0.8,3.4c0.8,0.9,1,2.1-0.1,3.1c-0.8,0.8-1.6,1.6-2.4,2.4
		c-0.9,0.9-1.9,0.9-2.9,0.1c-1.1-1-2.4-1.3-3.8-0.8c-1.4,0.5-2.3,1.5-2.6,2.9c0,0.2,0,0.5-0.1,0.7c-0.1,1.1-0.8,1.8-1.9,1.8
		c-1.3,0-2.5,0-3.8,0c-1.2,0-2-0.7-2-2c-0.1-1.7-1.1-3.1-2.8-3.6c-1.3-0.4-2.5-0.1-3.5,0.8c-1.1,1-2,0.9-3.1-0.1
		c-0.8-0.8-1.6-1.6-2.4-2.4c-0.9-0.9-0.9-1.9-0.1-2.9c1-1.1,1.3-2.4,0.9-3.8c-0.5-1.4-1.5-2.3-2.9-2.6c-0.2,0-0.4,0-0.7-0.1
		c-1.1-0.1-1.9-0.8-1.9-2c0-0.6,0-1.2,0-1.8c0-0.5,0.2-0.7,0.7-0.7c1.2,0,2.3,0,3.5,0c0-1.1,0-2.2,0-3.3c-0.4,0-0.7,0-0.9,0.4
		c-0.4,0.7-1.3,1-2,0.8c-0.8-0.2-1.3-1-1.3-1.8s0.6-1.5,1.4-1.7s1.6,0.1,2,0.8c0.2,0.3,0.3,0.4,0.6,0.4c0.2,0,0.4,0,0.7,0
		c0.5,0,0.7,0.2,0.7,0.7c0,1.2,0,2.5,0,3.7c0.6,0,1.1,0,1.7,0c0-2.4,0-4.7,0-7.1c-0.4,0-0.7,0-1.1,0c-0.3,0.7-0.8,1.2-1.6,1.2
		c-1,0.1-1.8-0.5-2-1.4c-0.2-0.8,0.3-1.7,1.1-2s1.8,0,2.2,0.8c0.2,0.3,0.3,0.4,0.6,0.3c0.4,0,0.7,0,1.1,0c0.6,0,0.8,0.2,0.8,0.8
		c0,2.4,0,4.8,0,7.2C12.8,24.2,12.8,24.2,12.8,24.4z M5.7,25.6c0,0.5,0,0.9,0,1.3c0,0.5,0.3,0.8,0.8,0.8c0.2,0,0.5,0,0.7,0.1
		c1.9,0.3,3.3,1.5,3.9,3.3s0.2,3.5-1.1,5c-0.4,0.5-0.4,0.8,0,1.2c0.8,0.8,1.6,1.6,2.4,2.5c0.6,0.6,0.8,0.6,1.5,0
		c1.3-1.1,2.7-1.5,4.4-1.1c2.3,0.6,3.7,2.3,3.9,4.7c0,0.6,0.3,0.9,0.9,0.9c1.2,0,2.5,0,3.7,0c0.6,0,0.8-0.3,0.9-0.8
		c0-0.2,0-0.4,0-0.7c0.3-1.9,1.5-3.3,3.3-3.9c1.9-0.6,3.5-0.2,5,1.1c0.5,0.4,0.8,0.4,1.2,0c0.8-0.8,1.7-1.7,2.5-2.5
		c0.5-0.5,0.6-0.8,0-1.4C37.8,34,38,30.9,40.1,29c0.9-0.8,1.9-1.2,3.1-1.2c0.5,0,0.8-0.2,0.9-0.6c0-0.5,0-1,0-1.5c-3,0-6,0-8.9,0
		c-0.5,5.8-5.2,9.6-10,9.7c-2.5,0-4.7-0.7-6.6-2.3c-2.3-1.9-3.6-4.4-3.8-7.4C11.7,25.6,8.8,25.6,5.7,25.6z M6.4,21.1
		c0.4,0,0.7-0.3,0.7-0.6c0-0.4-0.3-0.7-0.6-0.7c-0.4,0-0.7,0.3-0.7,0.7C5.7,20.8,6,21.1,6.4,21.1z M44.2,20.4c0-0.4-0.3-0.7-0.7-0.7
		s-0.7,0.3-0.7,0.6c0,0.4,0.3,0.7,0.7,0.7C43.9,21.1,44.2,20.8,44.2,20.4z M9.5,16.7c0-0.4-0.3-0.7-0.6-0.7c-0.4,0-0.7,0.3-0.7,0.7
		c0,0.4,0.3,0.6,0.7,0.6C9.2,17.3,9.5,17,9.5,16.7z M41.1,17.3c0.4,0,0.7-0.3,0.7-0.6c0-0.4-0.3-0.7-0.7-0.7s-0.6,0.3-0.6,0.7
		C40.5,17,40.7,17.3,41.1,17.3z"/>
	<path class="st2" d="M17.4,13.4c-1.3-0.7-1.8-1.7-1.5-2.8c0.2-1,1.2-1.8,2.2-1.8c1.1,0,2,0.7,2.3,1.7c0.3,1.1-0.2,2.1-1.5,2.9
		c0.4,0.1,0.8,0.3,1.2,0.4c0.1,0,0.2,0,0.3-0.1c2.8-2.5,6.4-2.5,9.2,0c0.1,0.1,0.2,0.1,0.3,0.1c0.4-0.1,0.8-0.3,1.2-0.4
		c-1.3-0.7-1.8-1.7-1.5-2.8s1.2-1.8,2.3-1.8s2,0.8,2.2,1.8c0.3,1.2-0.2,2.2-1.5,2.8c0.1,0,0.2,0.1,0.3,0.1c1.9,0.5,3.2,2.1,3.4,4
		c0.1,0.8-0.3,1.3-1,1.7c-0.8,0.4-1.6,0.6-2.5,0.7c-1.1,0-2,0.2-3,0.8c-1,0.7-2.3,0.8-3.6,0.9c-1.9,0.1-3.7,0.1-5.5-0.6
		c-0.6-0.2-1.2-0.6-1.7-0.9C18.9,20,18.7,20,18.6,20c-1,0-2.1,0-3.1-0.3c-0.1,0-0.2-0.1-0.3-0.1c-1.4-0.5-1.8-1.3-1.5-2.7
		c0.4-1.8,1.6-2.9,3.3-3.4C17.2,13.5,17.2,13.4,17.4,13.4z M24.9,20.4c0.3,0,0.6,0,0.9,0c1.3-0.1,2.5-0.2,3.6-0.8
		c0.9-0.4,1.1-0.8,1-1.8C30.1,15.1,27.8,13,25,13s-5.2,2.1-5.5,4.9c-0.1,1,0.1,1.3,0.9,1.7c0.3,0.1,0.5,0.2,0.8,0.3
		C22.4,20.3,23.7,20.4,24.9,20.4z M18.3,18.8c0-1.5,0.3-2.8,1.1-4c-0.2-0.1-0.3-0.1-0.4-0.2c-1.9-0.5-3.8,0.7-4.1,2.7
		c-0.1,0.4,0.1,0.7,0.5,0.9C16.2,18.7,17.2,18.8,18.3,18.8z M30.6,14.8c0.3,0.7,0.6,1.3,0.8,1.9c0.2,0.7,0.2,1.4,0.3,2.1
		c0.9,0,1.7-0.1,2.6-0.4c0.8-0.3,0.9-0.5,0.8-1.3C34.6,15.1,32.3,13.9,30.6,14.8z M19.3,11.1c0-0.7-0.5-1.2-1.2-1.2
		c-0.6,0-1.2,0.5-1.2,1.2c0,0.6,0.5,1.2,1.2,1.2C18.7,12.3,19.3,11.8,19.3,11.1z M30.6,11.1c0,0.7,0.5,1.2,1.2,1.2
		c0.7,0,1.2-0.6,1.2-1.2c0-0.6-0.5-1.2-1.2-1.2C31.2,9.9,30.6,10.4,30.6,11.1z"/>
	<path class="st2" d="M25,24.4c2.2,0,4.5,0,6.7,0c0.6,0,0.8,0.2,0.8,0.8c-0.1,3.7-3,6.9-6.7,7.3c-3.8,0.4-7.3-2.2-8.1-5.8
		c-0.1-0.5-0.1-1-0.2-1.5c0-0.6,0.2-0.8,0.8-0.8C20.5,24.4,22.7,24.4,25,24.4z M31.3,25.6c-4.2,0-8.5,0-12.7,0
		c0.2,3.2,3,5.8,6.3,5.8C28.2,31.3,31,28.8,31.3,25.6z"/>
	<path class="st2" d="M24.9,11.4c-1.9,0-3.4-1.5-3.4-3.4s1.5-3.4,3.4-3.4s3.4,1.5,3.4,3.4S26.8,11.4,24.9,11.4z M27.2,8
		c0-1.2-1-2.2-2.2-2.2s-2.2,1-2.3,2.2c0,1.3,1,2.3,2.2,2.3C26.2,10.2,27.2,9.2,27.2,8z"/>
	<path class="st3" d="M5.7,25.6c3,0,6,0,9,0c0.2,3,1.5,5.5,3.8,7.4c1.9,1.6,4.2,2.3,6.6,2.3c4.8-0.1,9.6-3.8,10-9.7c3,0,5.9,0,8.9,0
		c0,0.5,0,1,0,1.5c0,0.4-0.4,0.6-0.9,0.6c-1.2,0-2.2,0.4-3.1,1.2c-2.1,1.8-2.3,5-0.4,7.1c0.5,0.6,0.5,0.9,0,1.4
		c-0.8,0.8-1.7,1.7-2.5,2.5c-0.4,0.4-0.8,0.4-1.2,0c-1.5-1.3-3.1-1.7-5-1.1c-1.9,0.6-3,2-3.3,3.9c0,0.2,0,0.4,0,0.7
		c0,0.6-0.3,0.8-0.9,0.8c-1.2,0-2.5,0-3.7,0c-0.6,0-0.8-0.3-0.9-0.9c-0.1-2.4-1.6-4.1-3.9-4.7c-1.7-0.4-3.1,0-4.4,1.1
		c-0.6,0.5-0.9,0.5-1.5,0c-0.8-0.8-1.6-1.6-2.4-2.5c-0.4-0.4-0.4-0.8,0-1.2c1.3-1.4,1.7-3.1,1.1-5c-0.6-1.9-1.9-3-3.9-3.3
		c-0.2,0-0.5,0-0.7-0.1c-0.5,0-0.8-0.3-0.8-0.8C5.7,26.4,5.7,26,5.7,25.6z"/>
	<path class="st4" d="M6.4,21.1c-0.4,0-0.6-0.3-0.6-0.7c0-0.4,0.3-0.7,0.7-0.7c0.4,0,0.6,0.3,0.6,0.7C7,20.8,6.7,21.1,6.4,21.1z"/>
	<path class="st4" d="M44.2,20.4c0,0.4-0.3,0.7-0.6,0.7c-0.4,0-0.7-0.3-0.7-0.7c0-0.4,0.3-0.6,0.7-0.6
		C43.9,19.8,44.2,20.1,44.2,20.4z"/>
	<path class="st4" d="M9.5,16.7c0,0.4-0.3,0.6-0.6,0.7c-0.4,0-0.7-0.3-0.7-0.6c0-0.4,0.3-0.7,0.7-0.7C9.2,16,9.5,16.3,9.5,16.7z"/>
	<path class="st4" d="M41.1,17.3c-0.4,0-0.6-0.3-0.6-0.6c0-0.4,0.3-0.7,0.6-0.7c0.4,0,0.7,0.3,0.7,0.7C41.8,17,41.5,17.3,41.1,17.3z
		"/>
	<path class="st4" d="M24.9,20.4c-1.3,0-2.5-0.1-3.7-0.5c-0.3-0.1-0.5-0.2-0.8-0.3c-0.9-0.4-1-0.8-0.9-1.7c0.3-2.8,2.7-4.9,5.5-4.9
		s5.1,2.1,5.4,4.9c0.1,1-0.1,1.3-1,1.8c-1.1,0.6-2.4,0.7-3.6,0.8C25.5,20.4,25.2,20.4,24.9,20.4z"/>
	<path class="st5" d="M18.3,18.8c-1.1,0-2.1-0.1-3-0.5c-0.4-0.2-0.5-0.5-0.5-0.9c0.3-2,2.2-3.3,4.1-2.7c0.1,0,0.2,0.1,0.4,0.2
		C18.6,16,18.3,17.3,18.3,18.8z"/>
	<path class="st5" d="M30.6,14.8c1.7-0.9,4,0.3,4.4,2.3c0.2,0.8,0.1,1-0.8,1.3c-0.8,0.3-1.7,0.4-2.6,0.4c-0.1-0.7-0.2-1.4-0.3-2.1
		C31.2,16.1,30.9,15.5,30.6,14.8z"/>
	<path class="st4" d="M19.3,11.1c0,0.7-0.5,1.2-1.2,1.2s-1.2-0.6-1.2-1.2c0-0.6,0.5-1.2,1.2-1.2S19.3,10.5,19.3,11.1z"/>
	<path class="st4" d="M30.6,11.1c0-0.7,0.5-1.2,1.2-1.2c0.6,0,1.2,0.6,1.2,1.2c0,0.6-0.6,1.2-1.2,1.2C31.1,12.3,30.6,11.8,30.6,11.1
		z"/>
	<path class="st4" d="M31.3,25.6c-0.2,3.2-3.1,5.8-6.3,5.8c-3.3,0-6.1-2.5-6.3-5.8C22.8,25.6,27,25.6,31.3,25.6z"/>
	<path class="st4" d="M27.2,8c0,1.2-1,2.2-2.2,2.2c-1.3,0-2.2-1-2.2-2.3c0-1.2,1-2.2,2.3-2.2C26.2,5.7,27.2,6.8,27.2,8z"/>
</g>
</svg>
