<?xml version="1.0" encoding="utf-8"?>
<!-- Generator: Adobe Illustrator 26.5.0, SVG Export Plug-In . SVG Version: 6.00 Build 0)  -->
<svg version="1.1" id="Layer_1" xmlns="http://www.w3.org/2000/svg" xmlns:xlink="http://www.w3.org/1999/xlink" x="0px" y="0px"
	 viewBox="0 0 50 50" style="enable-background:new 0 0 50 50;" xml:space="preserve">
<style type="text/css">
	.st0{display:none;}
	.st1{display:inline;fill:#FFBB63;}
	.st2{fill:#17ABE7;}
	.st3{fill:#136EF0;}
	.st4{fill:#1689FB;}
	.st5{fill:#1688FB;}
</style>
<g id="Layer_2_00000119109948890343317050000008090535605774827453_" class="st0">
	<rect class="st1" width="50" height="50"/>
</g>
<path class="st2" d="M25,45.4c-1.2,0.8-2.4,1.6-3.7,2.4c-0.2,0-0.5,0-0.7,0c-0.8-0.4-1-1-1-1.8c0-6.5,0-13,0-19.5c1.8,0,3.6,0,5.3,0
	l0,0C25,32.8,25,39.1,25,45.4z"/>
<path class="st3" d="M46.2,10.3c-1.6,1.6-3.1,3.2-4.7,4.8c-3.6,3.7-7.3,7.4-10.9,11.1c-0.1,0.1-0.2,0.2-0.3,0.3c-1.8,0-3.6,0-5.3,0
	c0,0,0,0,0,0c0-5.4,0-10.8,0-16.2c7,0,13.9,0,20.9,0C46,10.3,46.1,10.3,46.2,10.3z"/>
<path class="st4" d="M25,10.3c0,5.4,0,10.8,0,16.2c-1.8,0-3.6,0-5.3,0C14.4,21.2,9.2,15.9,4,10.6c-0.1-0.1-0.2-0.2-0.3-0.3
	c0.2,0,0.3-0.1,0.5-0.1C11.1,10.3,18,10.3,25,10.3L25,10.3z"/>
<path class="st5" d="M46.2,10.3c-0.1,0-0.3-0.1-0.4-0.1c-7,0-13.9,0-20.9,0c0,0,0,0,0,0c0-2.7,0-5.3,0-8c0.2,0,0.4,0,0.7,0
	c6.4,0,12.8,0,19.2,0c1,0,1.5,0.5,1.5,1.5c0,2.1,0,4.1,0,6.2C46.3,10,46.3,10.2,46.2,10.3z"/>
<path class="st2" d="M25,2.3c0,2.7,0,5.3,0,8c-6.9,0-13.8,0-20.8,0c-0.2,0-0.3,0-0.5,0.1c0-0.1-0.1-0.2-0.1-0.4c0-2.1,0-4.2,0-6.3
	c0-0.8,0.6-1.4,1.4-1.4c6.6,0,13.2,0,19.8,0C24.8,2.2,24.9,2.2,25,2.3z"/>
<path class="st4" d="M25,26.5c1.8,0,3.6,0,5.3,0c0,4.8,0,9.7,0,14.5c0,0.6-0.2,1-0.7,1.4c-1.5,1-3.1,2-4.6,3.1
	C25,39.1,25,32.8,25,26.5z"/>
</svg>
