<?xml version="1.0" encoding="utf-8"?>
<!-- Generator: Adobe Illustrator 26.5.0, SVG Export Plug-In . SVG Version: 6.00 Build 0)  -->
<svg version="1.1" id="Layer_1" xmlns="http://www.w3.org/2000/svg" xmlns:xlink="http://www.w3.org/1999/xlink" x="0px" y="0px"
	 viewBox="0 0 50 50" style="enable-background:new 0 0 50 50;" xml:space="preserve">
<style type="text/css">
	.st0{display:none;}
	.st1{display:inline;fill:#FFBB63;}
	.st2{fill:#28A6E5;}
	.st3{fill:#1C3C55;}
	.st4{fill:#FDFEFE;}
	.st5{fill:#D2DCDC;}
	.st6{fill:#D2DCDB;}
	.st7{fill:#FBFCFC;}
	.st8{fill:#FCFCFC;}
	.st9{fill:#FAFAFB;}
	.st10{fill:#F9FAFA;}
	.st11{fill:#47C9A5;}
	.st12{fill:#FBFDFC;}
</style>
<g id="Layer_2_00000119109948890343317050000008090535605774827453_" class="st0">
	<rect class="st1" width="50" height="50"/>
</g>
<path class="st2" d="M25.3,0c0.7,0.1,1.4,0.2,2.1,0.4c6.9,1.4,12.3,7.1,13.5,14c1.2,7.4-2.1,14.5-8.6,18.2c-0.4-0.1-0.8-0.4-1.2-0.4
	c-0.7-0.1-1.2-0.6-1.6-1.1c-0.4-0.6-0.9-1.2-1.4-1.8c0.3-0.3,0.5-0.5,0.8-0.7c1.5-1.6,2.6-3.5,3.6-5.5c0.3-0.6,0.5-0.9,1.3-1
	c2-0.3,3.4-2.5,3-4.7c-0.2-0.9-0.6-1.6-1.4-2.1c-0.1-0.1-0.2-0.3-0.2-0.5c0.2-1.3,0.2-2.7,0-4c-0.5-2.7-1.7-5.1-3.9-6.8
	c-1.9-1.5-4.2-2-6.6-2.1c-3.4-0.1-6.4,0.7-9,3c-1,0.9-1.4,2-0.9,3.3c0.1,0.3,0,0.5-0.2,0.7c-0.6,0.4-0.9,0.9-1.1,1.6
	c-0.4,1.4-0.5,2.8-0.2,4.2c0.1,0.3,0,0.5-0.3,0.7c-1.3,0.9-1.8,2.5-1.4,4c0.5,1.5,1.8,2.5,3.4,2.5c0.3,0,0.4,0.1,0.5,0.4
	c1.1,2.3,2.4,4.6,4.3,6.4c0.1,0.1,0.1,0.4,0.1,0.5c-0.4,0.8-0.9,1.7-1.4,2.5c-0.1,0.1-0.2,0.2-0.3,0.2c-0.9,0.3-1.7,0.6-2.6,0.9
	c-1.6-0.9-3-2-4.3-3.3c-2.8-3-4.4-6.5-4.7-10.6c-0.4-7,2.3-12.4,8.1-16.2c2-1.3,4.3-2.1,6.7-2.4c0.2,0,0.5-0.1,0.7-0.2
	C23.1,0,24.2,0,25.3,0z"/>
<path class="st3" d="M15.5,32.7c0.9-0.3,1.7-0.6,2.6-0.9c0.1,0,0.2-0.1,0.3-0.2c0.5-0.8,0.9-1.6,1.4-2.5c0.1-0.1,0-0.4-0.1-0.5
	c-1.9-1.8-3.2-4-4.3-6.4c-0.1-0.2-0.2-0.4-0.5-0.4c-1.6,0-3-1-3.4-2.5c-0.4-1.4,0.1-3.1,1.4-4c0.3-0.2,0.3-0.3,0.3-0.7
	c-0.2-1.4-0.1-2.8,0.2-4.2c0.2-0.7,0.5-1.2,1.1-1.6c0.3-0.2,0.3-0.4,0.2-0.7c-0.4-1.3-0.1-2.4,0.9-3.3c2.5-2.4,5.6-3.2,9-3
	c2.4,0.1,4.6,0.6,6.6,2.1c2.2,1.7,3.4,4.1,3.9,6.8c0.3,1.3,0.2,2.7,0,4c0,0.2,0.1,0.4,0.2,0.5c0.8,0.4,1.2,1.2,1.4,2.1
	c0.4,2.1-0.9,4.4-3,4.7c-0.7,0.1-1,0.4-1.3,1c-0.9,2-2,3.9-3.6,5.5c-0.2,0.2-0.5,0.4-0.8,0.7c0.5,0.6,1,1.2,1.4,1.8
	c0.4,0.6,0.9,1,1.6,1.1c0.4,0.1,0.8,0.3,1.2,0.4c0.7,0.4,1.3,0.9,2,1.3c0.1,0.1,0.4,0.1,0.5,0.1c4-0.2,7.5,2.2,8.5,6
	c1.2,4.6-1.9,9.2-6.5,10c-0.1,0-0.2,0.1-0.2,0.1c-0.7,0-1.4,0-2.1,0c-0.5-0.1-1-0.3-1.5-0.4c-1.4-0.5-2.5-1.2-3.5-2.4
	c-0.2-0.3-0.4-0.3-0.7-0.3c-6,0-12.1,0-18.1,0c-0.7,0-0.8-0.1-0.8-0.8c0-1.6-0.1-3.2,0.1-4.7c0.3-3.7,2.2-6.6,5.4-8.5
	C15.4,32.8,15.4,32.8,15.5,32.7z M32.3,11.6c-2.3,0.7-4.4,0.5-6.4-0.8c-1.3-0.9-2.9-1.3-4.5-1.2c-3.3,0.2-4.7,1.6-5.4,3.8
	c-0.4,1.3-0.6,2.7-0.9,4.1C15,18,14.9,18.6,15,19.1c0.8,2.6,2,5.1,3.7,7.3c0.8,1,1.6,2,2.7,2.6c1.9,1,5.2,1.2,7.4-1.6
	c1.7-2.2,2.9-4.6,3.9-7.2c0.1-0.3,0.2-0.7,0.2-1c0-1.3,0-2.7-0.1-4C32.7,13.9,32.5,12.8,32.3,11.6z M28.6,46.1
	c-2.7-4.9-0.1-10.5,4.8-11.9c-1.1-0.8-2.3-1.3-3.6-1.5c-0.3,0-0.6,0-0.9,0.1c-0.8,0.4-1.6,0.9-2.4,1.3c-0.8,0.4-1.7,0.7-2.7,0.6
	c-1.7-0.1-3.2-0.5-4.5-1.7c-0.5-0.4-0.9-0.5-1.5-0.3c-2.5,0.7-4.4,2.2-5.9,4.4c-1.8,2.8-1.4,5.9-1.4,8.9
	C16.6,46.1,22.6,46.1,28.6,46.1z M33.8,17c0.5-2.1,0.8-4.3,0.4-6.4c-0.6-3-2.2-5.4-5-6.9c-1.4-0.7-3-0.9-4.6-1
	c-3.2-0.2-6,0.6-8.4,2.7c-0.9,0.8-1.2,1.7-0.7,2.7c0.3,0.5,0.1,0.9-0.3,1.1c-0.9,0.5-1.1,1.4-1.3,2.3c-0.2,1.4-0.1,2.7,0.2,4
	c0.1,0.3,0.1,0.6,0.2,1c0.3-1,0.4-2,0.7-3c0.8-2.7,2.5-4.4,5.3-4.8c2.3-0.3,4.4,0.3,6.3,1.4c0.5,0.3,1.1,0.6,1.6,0.8
	c1.3,0.4,2.6,0.2,3.9-0.2c0.5-0.2,0.7-0.1,0.8,0.4c0.1,0.7,0.3,1.5,0.4,2.2C33.6,14.6,33.7,15.8,33.8,17z M28.3,41.9
	c0,4,3.2,7.2,7.1,7.3c4,0.1,7.3-3.2,7.3-7.2c0-4-3.2-7.3-7.1-7.3C31.6,34.6,28.3,37.8,28.3,41.9z M29.1,31.8c-0.5-0.7-1-1.2-1.4-1.7
	c-0.2-0.2-0.3-0.3-0.6-0.2c-0.3,0.1-0.6,0.2-0.9,0.3c-1.8,0.7-3.5,0.6-5.2-0.2c-0.2-0.1-0.4-0.2-0.7-0.3c-0.4,0.7-0.8,1.4-1.2,2.2
	c0.5,0.4,1,0.9,1.5,1.1c1.4,0.7,2.9,1.2,4.4,0.7C26.5,33.2,27.7,32.4,29.1,31.8z M13.3,16c-1,0.6-1.5,1.9-1.1,3.1
	c0.3,1,1.4,1.9,2.3,1.9C14.2,19.3,13.8,17.7,13.3,16z M35.1,16.2c-0.6,1.7-1.1,3.3-1.6,5c0.9,0,1.9-0.9,2.3-2
	C36.1,18,35.9,16.8,35.1,16.2z"/>
<path class="st4" d="M32.3,11.6c0.2,1.2,0.4,2.3,0.5,3.5c0.1,1.3,0.1,2.7,0.1,4c0,0.3-0.1,0.7-0.2,1c-0.9,2.6-2.2,5-3.9,7.2
	c-2.2,2.8-5.5,2.6-7.4,1.6c-1.1-0.6-2-1.5-2.7-2.6c-1.6-2.2-2.9-4.6-3.7-7.3c-0.1-0.5,0-1.1,0.1-1.6c0.3-1.4,0.5-2.8,0.9-4.1
	c0.7-2.2,2.1-3.6,5.4-3.8c1.6-0.1,3.2,0.3,4.5,1.2C27.9,12.1,30,12.3,32.3,11.6z"/>
<path class="st5" d="M28.6,46.1c-6,0-11.9,0-17.9,0c0-3.1-0.4-6.2,1.4-8.9c1.4-2.2,3.3-3.7,5.9-4.4c0.6-0.2,1.1-0.1,1.5,0.3
	c1.3,1.2,2.8,1.5,4.5,1.7c1,0.1,1.8-0.2,2.7-0.6c0.8-0.4,1.6-0.9,2.4-1.3c0.3-0.1,0.6-0.2,0.9-0.1c1.3,0.2,2.5,0.8,3.6,1.5
	C28.5,35.5,25.9,41.2,28.6,46.1z"/>
<path class="st6" d="M33.8,17c-0.1-1.2-0.2-2.4-0.4-3.6c-0.1-0.7-0.3-1.5-0.4-2.2c-0.1-0.5-0.3-0.6-0.8-0.4
	c-1.3,0.4-2.6,0.6-3.9,0.2c-0.6-0.2-1.1-0.5-1.6-0.8c-2-1.1-4-1.7-6.3-1.4c-2.8,0.4-4.6,2.1-5.3,4.8c-0.3,1-0.4,2-0.7,3
	c-0.1-0.3-0.1-0.6-0.2-1c-0.3-1.3-0.4-2.7-0.2-4c0.1-0.9,0.4-1.8,1.3-2.3c0.4-0.3,0.6-0.6,0.3-1.1c-0.5-1.1-0.2-1.9,0.7-2.7
	c2.4-2.2,5.2-3,8.4-2.7c1.6,0.1,3.1,0.3,4.6,1c2.8,1.4,4.3,3.8,5,6.9C34.6,12.7,34.3,14.9,33.8,17z"/>
<path class="st7" d="M28.3,41.9c0-4.1,3.3-7.3,7.3-7.2c3.9,0,7.2,3.3,7.1,7.3c0,4-3.3,7.3-7.3,7.2C31.5,49.1,28.3,45.9,28.3,41.9z
	 M30,41.9c0,3.1,2.5,5.6,5.5,5.7c3,0,5.6-2.5,5.6-5.6c0-3.1-2.5-5.6-5.6-5.6C32.5,36.3,30,38.8,30,41.9z"/>
<path class="st8" d="M29.1,31.8c-1.4,0.7-2.6,1.4-4,1.9c-1.5,0.5-3,0-4.4-0.7c-0.5-0.3-1-0.7-1.5-1.1c0.4-0.7,0.8-1.4,1.2-2.2
	c0.2,0.1,0.4,0.2,0.7,0.3c1.7,0.8,3.4,0.9,5.2,0.2c0.3-0.1,0.6-0.2,0.9-0.3c0.3-0.1,0.4-0.1,0.6,0.2C28.1,30.6,28.6,31.1,29.1,31.8z
	"/>
<path class="st9" d="M13.3,16c0.4,1.6,0.8,3.3,1.2,4.9c-1,0-2-0.8-2.3-1.9C11.9,18,12.3,16.7,13.3,16z"/>
<path class="st10" d="M35.1,16.2c0.8,0.6,1,1.9,0.6,3.1c-0.3,1.1-1.3,1.9-2.3,2C34,19.5,34.5,17.8,35.1,16.2z"/>
<path class="st11" d="M30,41.9c0-3.1,2.5-5.6,5.6-5.6c3.1,0,5.6,2.6,5.6,5.6c0,3.1-2.6,5.6-5.6,5.6C32.4,47.5,29.9,45,30,41.9z
	 M35.1,41.3c-1.1,0-2.1,0-3.1,0c-0.3,0-0.7,0-0.7,0.4c0,0.5,0.4,0.4,0.7,0.4c0.8,0,1.7,0,2.5,0c0.4,0,0.5,0.1,0.5,0.5
	c0,0.9,0,1.8,0,2.7c0,0.3,0,0.6,0.4,0.6c0.3,0,0.4-0.3,0.4-0.5c0-0.6,0-1.3,0-1.9c0-0.4,0-0.9,0-1.3c1,0,2,0,3,0
	c0.3,0,0.8,0.1,0.8-0.4c0-0.5-0.5-0.4-0.8-0.4c-0.7,0-1.5,0-2.2,0c-0.2,0-0.5,0-0.7,0c0-0.2,0-0.3,0-0.5c0-0.9,0-1.8,0-2.7
	c0-0.2-0.1-0.4-0.3-0.5c-0.1-0.1-0.3,0-0.4,0.1c-0.1,0.1-0.1,0.3-0.1,0.5C35.1,39.2,35.1,40.2,35.1,41.3z"/>
<path class="st12" d="M35.1,41.3c0-1.1,0-2.1,0-3.1c0-0.2,0-0.4,0.1-0.5c0.1-0.1,0.3-0.1,0.4-0.1c0.1,0.1,0.3,0.3,0.3,0.5
	c0,0.9,0,1.8,0,2.7c0,0.1,0,0.3,0,0.5c0.3,0,0.5,0,0.7,0c0.7,0,1.5,0,2.2,0c0.3,0,0.8-0.1,0.8,0.4c0,0.5-0.5,0.4-0.8,0.4
	c-1,0-1.9,0-3,0c0,0.5,0,0.9,0,1.3c0,0.6,0,1.3,0,1.9c0,0.3-0.1,0.5-0.4,0.5c-0.3,0-0.4-0.3-0.4-0.6c0-0.9,0-1.8,0-2.7
	c0-0.4-0.1-0.5-0.5-0.5c-0.8,0-1.7,0-2.5,0c-0.3,0-0.7,0.1-0.7-0.4c0-0.4,0.4-0.4,0.7-0.4C33.1,41.3,34.1,41.3,35.1,41.3z"/>
</svg>
