<?xml version="1.0" encoding="utf-8"?>
<!-- Generator: Adobe Illustrator 26.5.0, SVG Export Plug-In . SVG Version: 6.00 Build 0)  -->
<svg version="1.1" id="Layer_1" xmlns="http://www.w3.org/2000/svg" xmlns:xlink="http://www.w3.org/1999/xlink" x="0px" y="0px"
	 viewBox="0 0 38.3 69.9" style="enable-background:new 0 0 38.3 69.9;" xml:space="preserve">
<style type="text/css">
	.st0{fill:#00B5E8;}
	.st1{fill:#017DC0;}
	.st2{opacity:0.5;fill:#1F1E21;}
	.st3{opacity:0.4;fill:#017DC0;}
	.st4{fill:#FFFFFF;}
	.st5{opacity:0.2;fill:#1F1E21;}
</style>
<g>
	<g>
		<g>
			<polygon class="st0" points="29.5,57.8 29.5,57.8 29.5,57.8 			"/>
			<g>
				<path class="st1" d="M35.7,35.5v34.3c-8.9,0-16.1-7.2-16.1-16.1V35.5c4.4,0,8.5,1.8,11.4,4.7c2.9,2.9,4.7,6.9,4.7,11.4
					L35.7,35.5L35.7,35.5z"/>
				<path class="st2" d="M35.7,51.4v2c0-4.4-1.6-8.5-4.2-11.4c-2.3-2.6-5.4-4.3-8.8-4.6c-0.7-0.1-1.4,0.5-1.4,1.3v16.9
					c0,3.2,0.9,6.2,2.3,8.8c-2.5-2.8-4-6.5-4-10.6V35.5c4.4,0,8.5,1.8,11.4,4.7C33.8,43.1,35.6,47.1,35.7,51.4z"/>
				<path class="st3" d="M35.7,37.4v14.3c0-0.1,0-0.1,0-0.2L35.7,37.4L35.7,37.4z"/>
				<path class="st0" d="M35.7,35.5v16.1c0-4.4-1.8-8.5-4.7-11.4c-2.9-2.9-6.9-4.7-11.4-4.7v0c-2.2-0.1-4.3-0.6-6.2-1.4
					C7.8,31.6,0.9,26,0.9,19.5h11.3c4.6,0,9.3-0.5,13.6,1.3c5.4,2.2,9.2,7.6,9.8,13.4C35.6,34.6,35.7,35.1,35.7,35.5z"/>
				<path class="st0" d="M35.7,35.5v16.1c0-4.4-1.8-8.5-4.7-11.4c-2.9-2.9-6.9-4.7-11.4-4.7v0c-2.2-0.1-4.3-0.6-6.2-1.4
					C7.8,31.6,0.9,26,0.9,19.5h11.3c4.6,0,9.3-0.5,13.6,1.3c5.4,2.2,9.2,7.6,9.8,13.4C35.6,34.6,35.7,35.1,35.7,35.5z"/>
				<path class="st4" d="M35.7,35.5v16.1c0-2-0.4-3.9-1-5.7v-9.4c0-0.5,0-0.9-0.1-1.4C34,29.4,30.2,24,24.8,21.8
					c-4.4-1.8-12.1-1.3-16.6-1.3H0.9c0-0.3,0-0.7,0-1h11.3c4.6,0,9.3-0.5,13.6,1.3c5.4,2.2,9.2,7.6,9.8,13.4
					C35.6,34.6,35.7,35.1,35.7,35.5z"/>
			</g>
			<circle class="st0" cx="27.6" cy="9.9" r="8"/>
			<circle class="st0" cx="27.6" cy="9.9" r="8"/>
			<circle class="st0" cx="27.6" cy="9.9" r="8"/>
			<path class="st5" d="M33.8,15c-1.5,1.8-3.7,2.9-6.2,2.9c-4.4,0-8-3.6-8-8c0-2.5,1.1-4.7,2.9-6.2c-1.2,1.4-1.8,3.2-1.8,5.1
				c0,4.4,3.6,8,8,8C30.6,16.9,32.4,16.2,33.8,15z"/>
			<path class="st4" d="M35.2,9.8c0,2.4-1.1,4.5-2.8,5.8c1-1.3,1.6-2.8,1.6-4.6c0-4.1-3.3-7.4-7.4-7.4c-1.7,0-3.3,0.6-4.6,1.6
				c1.4-1.7,3.5-2.8,5.8-2.8C31.9,2.4,35.2,5.7,35.2,9.8z"/>
		</g>
	</g>
</g>
</svg>
