<?xml version="1.0" encoding="utf-8"?>
<!-- Generator: Adobe Illustrator 26.5.0, SVG Export Plug-In . SVG Version: 6.00 Build 0)  -->
<svg version="1.1" id="Layer_1" xmlns="http://www.w3.org/2000/svg" xmlns:xlink="http://www.w3.org/1999/xlink" x="0px" y="0px"
	 viewBox="0 0 193.5 69.9" style="enable-background:new 0 0 193.5 69.9;" xml:space="preserve">
<style type="text/css">
	.st0{fill:#00B5E8;}
	.st1{fill:#017DC0;}
	.st2{opacity:0.5;fill:#1F1E21;}
	.st3{opacity:0.4;fill:#017DC0;}
	.st4{fill:#FFFFFF;}
	.st5{opacity:0.2;fill:#1F1E21;}
</style>
<g>
	<g>
		<g>
			<polygon class="st0" points="29.5,57.8 29.5,57.8 29.5,57.8 			"/>
			<g>
				<path class="st1" d="M35.7,35.5v34.3c-8.9,0-16.1-7.2-16.1-16.1V35.5c4.4,0,8.5,1.8,11.4,4.7c2.9,2.9,4.7,6.9,4.7,11.4
					L35.7,35.5L35.7,35.5z"/>
				<path class="st2" d="M35.7,51.4v2c0-4.4-1.6-8.5-4.2-11.4c-2.3-2.6-5.4-4.3-8.8-4.6c-0.7-0.1-1.4,0.5-1.4,1.3v16.9
					c0,3.2,0.9,6.2,2.3,8.8c-2.5-2.8-4-6.5-4-10.6V35.5c4.4,0,8.5,1.8,11.4,4.7C33.8,43.1,35.6,47.1,35.7,51.4z"/>
				<path class="st3" d="M35.7,37.4v14.3c0-0.1,0-0.1,0-0.2L35.7,37.4L35.7,37.4z"/>
				<path class="st0" d="M35.7,35.5v16.1c0-4.4-1.8-8.5-4.7-11.4c-2.9-2.9-6.9-4.7-11.4-4.7v0c-2.2-0.1-4.3-0.6-6.2-1.4
					C7.8,31.6,0.9,26,0.9,19.5h11.3c4.6,0,9.3-0.5,13.6,1.3c5.4,2.2,9.2,7.6,9.8,13.4C35.6,34.6,35.7,35.1,35.7,35.5z"/>
				<path class="st0" d="M35.7,35.5v16.1c0-4.4-1.8-8.5-4.7-11.4c-2.9-2.9-6.9-4.7-11.4-4.7v0c-2.2-0.1-4.3-0.6-6.2-1.4
					C7.8,31.6,0.9,26,0.9,19.5h11.3c4.6,0,9.3-0.5,13.6,1.3c5.4,2.2,9.2,7.6,9.8,13.4C35.6,34.6,35.7,35.1,35.7,35.5z"/>
				<path class="st4" d="M35.7,35.5v16.1c0-2-0.4-3.9-1-5.7v-9.4c0-0.5,0-0.9-0.1-1.4C34,29.4,30.2,24,24.8,21.8
					c-4.4-1.8-12.1-1.3-16.6-1.3H0.9c0-0.3,0-0.7,0-1h11.3c4.6,0,9.3-0.5,13.6,1.3c5.4,2.2,9.2,7.6,9.8,13.4
					C35.6,34.6,35.7,35.1,35.7,35.5z"/>
			</g>
			<circle class="st0" cx="27.6" cy="9.9" r="8"/>
			<circle class="st0" cx="27.6" cy="9.9" r="8"/>
			<circle class="st0" cx="27.6" cy="9.9" r="8"/>
			<path class="st5" d="M33.8,15c-1.5,1.8-3.7,2.9-6.2,2.9c-4.4,0-8-3.6-8-8c0-2.5,1.1-4.7,2.9-6.2c-1.2,1.4-1.8,3.2-1.8,5.1
				c0,4.4,3.6,8,8,8C30.6,16.9,32.4,16.2,33.8,15z"/>
			<path class="st4" d="M35.2,9.8c0,2.4-1.1,4.5-2.8,5.8c1-1.3,1.6-2.8,1.6-4.6c0-4.1-3.3-7.4-7.4-7.4c-1.7,0-3.3,0.6-4.6,1.6
				c1.4-1.7,3.5-2.8,5.8-2.8C31.9,2.4,35.2,5.7,35.2,9.8z"/>
		</g>
	</g>
</g>
<g>
	<path class="st0" d="M53.5,27.7c0.1-0.3,0.4-0.5,0.7-0.5s0.7-0.1,1.1-0.1s0.8,0,1.1,0.1c0.3,0.1,0.5,0.2,0.6,0.3
		c0.1,0.1,0.2,0.3,0.3,0.5c0.1,0.2,0.1,0.6,0.1,1.2v12.8c0,0.4,0,0.6,0,0.8c0,0.2-0.1,0.4-0.2,0.6c-0.2,0.4-0.8,0.6-1.8,0.6
		c-0.6,0-1,0-1.2-0.1c-0.2-0.1-0.4-0.2-0.6-0.4c-3.5-4.6-5.7-7.6-6.8-9v7.6c0,0.4,0,0.6,0,0.8c0,0.2-0.1,0.4-0.2,0.6
		c-0.2,0.4-0.8,0.6-1.8,0.6c-1,0-1.5-0.2-1.8-0.6c-0.1-0.2-0.2-0.4-0.2-0.6c0-0.2,0-0.5,0-0.8V29c0-0.6,0.1-1,0.2-1.3
		c0.1-0.3,0.4-0.5,0.7-0.5s0.7-0.1,1.1-0.1c0.5,0,0.8,0,1.1,0.1c0.3,0.1,0.5,0.2,0.6,0.3c0.1,0,0.2,0.2,0.5,0.6
		c3.2,4.4,5.4,7.3,6.5,8.7V29C53.3,28.4,53.4,28,53.5,27.7z"/>
	<path class="st0" d="M66.9,42.4c-0.6,0.8-1.5,1.2-2.8,1.2c-1.3,0-2.5-0.6-3.6-1.8c-1.1-1.2-1.7-2.6-1.7-4.1c0-1.6,0.6-2.9,1.7-4.1
		c1.1-1.2,2.4-1.8,3.7-1.8c0.5,0,1,0.1,1.4,0.3c0.4,0.2,0.7,0.4,0.9,0.5s0.3,0.3,0.4,0.5c0-0.4,0.2-0.8,0.5-1s0.7-0.3,1.3-0.3
		c0.6,0,1,0,1.3,0.1s0.5,0.3,0.6,0.5c0.1,0.2,0.2,0.4,0.2,0.6s0,0.4,0,0.8v9.6c0,1.8-0.6,3.2-1.8,4.3c-1.2,1.1-2.6,1.6-4.2,1.6
		c-1.2,0-2.3-0.3-3.3-0.9c-1.1-0.6-1.6-1.1-1.6-1.5c0-0.6,0.2-1.1,0.7-1.6c0.3-0.3,0.5-0.5,0.7-0.7s0.4-0.2,0.6-0.2
		c0.2,0,0.4,0.1,0.7,0.3c0.7,0.6,1.5,0.9,2.4,0.9c0.6,0,1.1-0.2,1.4-0.7c0.4-0.5,0.6-1,0.6-1.7V42.4z M62.8,37.7
		c0,0.5,0.2,1,0.6,1.4c0.4,0.4,0.9,0.6,1.4,0.6c0.6,0,1-0.2,1.4-0.6c0.4-0.4,0.6-0.9,0.6-1.3c0-0.5-0.2-0.9-0.5-1.4
		c-0.4-0.4-0.8-0.6-1.4-0.6s-1.1,0.2-1.5,0.6C63,36.8,62.8,37.2,62.8,37.7z"/>
	<path class="st0" d="M79.5,40.8H74c-0.9,0-1.4-0.3-1.5-0.8c-0.1-0.3-0.1-0.6-0.1-1.1s0-0.8,0.1-1c0.1-0.3,0.2-0.4,0.4-0.6
		c0.3-0.1,0.6-0.2,1.1-0.2h5.5c0.9,0,1.4,0.3,1.5,0.8c0.1,0.3,0.1,0.6,0.1,1.1c0,0.4,0,0.8-0.1,1.1s-0.2,0.5-0.4,0.6
		C80.4,40.7,80,40.8,79.5,40.8z"/>
	<path class="st1" d="M86.8,39.9h7.1c0.4,0,0.6,0,0.8,0c0.2,0,0.4,0.1,0.6,0.2c0.4,0.2,0.6,0.8,0.6,1.8c0,1.1-0.3,1.7-0.9,1.9
		c-0.3,0.1-0.7,0.1-1.2,0.1h-9.1c-1.1,0-1.7-0.3-1.9-0.9c-0.1-0.2-0.1-0.6-0.1-1.2V29.1c0-0.8,0.1-1.3,0.4-1.6S84,27,84.8,27h9.1
		c0.4,0,0.6,0,0.8,0s0.4,0.1,0.6,0.2c0.4,0.2,0.6,0.8,0.6,1.8c0,1.1-0.3,1.7-0.9,1.9c-0.3,0.1-0.7,0.1-1.2,0.1h-7.1v2.3h4.6
		c0.4,0,0.6,0,0.8,0c0.2,0,0.4,0.1,0.6,0.2c0.4,0.2,0.6,0.8,0.6,1.8c0,1.1-0.3,1.7-0.9,1.9c-0.3,0.1-0.7,0.1-1.2,0.1h-4.5V39.9z"/>
	<path class="st1" d="M101.4,33.4c0.7-1.1,1.6-1.6,2.6-1.6c1.6,0,2.7,0.7,3.5,2c0.2-0.2,0.4-0.5,0.6-0.7c0.2-0.3,0.6-0.5,1.1-0.8
		c0.5-0.3,1.1-0.5,1.6-0.5c1.2,0,2.3,0.5,3.1,1.4s1.2,2.5,1.2,4.7v4c0,0.4,0,0.6,0,0.8c0,0.2-0.1,0.4-0.2,0.6
		c-0.2,0.4-0.8,0.6-1.8,0.6c-1,0-1.6-0.2-1.8-0.6c-0.1-0.2-0.2-0.4-0.2-0.6s0-0.4,0-0.8v-4c0-1.3-0.5-2-1.4-2
		c-0.5,0-0.9,0.2-1.1,0.5c-0.2,0.4-0.3,0.9-0.3,1.5v4c0,0.4,0,0.6,0,0.8c0,0.2-0.1,0.4-0.2,0.6c-0.2,0.4-0.8,0.6-1.8,0.6
		c-1,0-1.6-0.2-1.8-0.6c-0.1-0.2-0.2-0.4-0.2-0.6s0-0.4,0-0.8v-4c0-1.3-0.5-2-1.4-2c-0.9,0-1.4,0.7-1.4,2V42c0,0.4,0,0.6,0,0.8
		c0,0.2-0.1,0.4-0.2,0.6c-0.2,0.4-0.8,0.6-1.8,0.6s-1.6-0.2-1.8-0.6c-0.1-0.2-0.2-0.4-0.2-0.6c0-0.2,0-0.4,0-0.8v-8.1
		c0-0.4,0-0.6,0-0.8c0-0.2,0.1-0.4,0.2-0.6c0.2-0.4,0.8-0.6,1.6-0.6c0.9,0,1.4,0.1,1.7,0.4S101.4,32.9,101.4,33.4z"/>
	<path class="st1" d="M117.1,47.3V33.8c0-0.4,0-0.6,0-0.8c0-0.2,0.1-0.4,0.2-0.6c0.2-0.4,0.7-0.6,1.5-0.6c0.8,0,1.4,0.1,1.7,0.3
		c0.3,0.2,0.5,0.5,0.5,0.9c0.6-0.8,1.5-1.2,2.8-1.2c1.3,0,2.4,0.6,3.6,1.8c1.1,1.2,1.7,2.6,1.7,4.1s-0.6,2.9-1.7,4.1
		c-1.1,1.2-2.3,1.8-3.6,1.8s-2.2-0.4-2.7-1.1v4.7c0,0.4,0,0.6,0,0.8s-0.1,0.4-0.2,0.6c-0.1,0.2-0.3,0.4-0.6,0.5
		c-0.3,0.1-0.7,0.1-1.1,0.1c-0.5,0-0.9,0-1.1-0.1c-0.3-0.1-0.5-0.2-0.6-0.5c-0.1-0.2-0.2-0.4-0.2-0.6
		C117.1,47.9,117.1,47.6,117.1,47.3z M121.7,36.4c-0.4,0.4-0.5,0.9-0.5,1.4s0.2,0.9,0.5,1.4c0.4,0.4,0.8,0.6,1.4,0.6
		c0.6,0,1-0.2,1.4-0.6c0.4-0.4,0.6-0.9,0.6-1.4s-0.2-1-0.6-1.4c-0.4-0.4-0.9-0.6-1.4-0.6C122.5,35.8,122,36,121.7,36.4z"/>
	<path class="st1" d="M130.5,28.1c0-0.4,0-0.6,0-0.8c0-0.2,0.1-0.4,0.2-0.6c0.2-0.4,0.8-0.6,1.8-0.6c0.9,0,1.5,0.2,1.8,0.6
		c0.1,0.2,0.2,0.4,0.2,0.6c0,0.2,0,0.5,0,0.8v10.7c0,0.6,0,0.9,0.1,1.1c0.1,0.1,0.3,0.2,0.6,0.2s0.5,0,0.6,0c0.1,0,0.2,0.1,0.4,0.2
		c0.3,0.2,0.5,0.7,0.5,1.6c0,1-0.2,1.6-0.5,1.8c-0.4,0.3-1.4,0.3-2.9,0.1c-1.2-0.2-2-0.5-2.3-1.2c-0.4-0.8-0.6-2-0.6-3.6V28.1z"/>
	<path class="st1" d="M139.7,33.3c1.3-1.2,2.8-1.8,4.4-1.8s3.1,0.6,4.4,1.8c1.3,1.2,1.9,2.7,1.9,4.6c0,1.3-0.3,2.4-1,3.4
		c-0.7,1-1.5,1.7-2.4,2.2s-1.9,0.7-2.9,0.7s-2-0.2-3-0.8c-1-0.5-1.8-1.2-2.4-2.2c-0.7-1-1-2.1-1-3.3C137.7,36,138.4,34.5,139.7,33.3
		z M142.6,39.5c0.5,0.4,1,0.6,1.5,0.6s1-0.2,1.5-0.6s0.8-1,0.8-1.7s-0.2-1.3-0.7-1.7c-0.5-0.4-1-0.6-1.5-0.6c-0.6,0-1.1,0.2-1.5,0.6
		c-0.5,0.4-0.7,1-0.7,1.7C141.8,38.6,142.1,39.2,142.6,39.5z"/>
	<path class="st1" d="M163.2,31.9c0.9,0.4,1.4,0.9,1.4,1.5c0,0.3-0.1,0.5-0.2,0.8c-0.1,0.2-0.2,0.4-0.2,0.4l-6,13.5
		c-0.1,0.3-0.2,0.5-0.3,0.7c-0.1,0.2-0.2,0.3-0.4,0.4c-0.2,0.1-0.4,0.2-0.7,0.2c-0.3,0-0.7-0.1-1.2-0.3c-0.9-0.4-1.4-0.9-1.4-1.4
		c0-0.4,0.7-2.1,2.2-5.3l-4.6-7.7c-0.3-0.5-0.5-0.9-0.5-1.1c0-0.5,0.4-1,1.2-1.5c0.5-0.3,0.9-0.5,1.2-0.5c0.3,0,0.5,0.1,0.7,0.2
		c0.2,0.1,0.3,0.3,0.4,0.4c0.1,0.1,0.5,0.8,1.3,2.1c0.8,1.3,1.5,2.5,2.2,3.6c0.1-0.2,0.5-1.2,1.2-2.9s1.2-2.5,1.2-2.6
		c0.1-0.1,0.1-0.2,0.3-0.4c0.2-0.3,0.5-0.4,0.8-0.4S162.8,31.7,163.2,31.9z"/>
	<path class="st1" d="M177.6,36.4c0,0.9-0.2,1.6-0.7,2.1c-0.5,0.5-1,0.7-1.6,0.7h-5.5c0,0.4,0.3,0.8,0.8,1.1c0.5,0.3,1,0.4,1.5,0.4
		c0.9,0,1.6-0.1,2.1-0.3l0.3-0.1c0.4-0.2,0.7-0.3,0.9-0.3c0.5,0,0.9,0.3,1.3,1c0.2,0.4,0.3,0.8,0.3,1.1c0,1.4-1.6,2.1-4.9,2.1
		c-1.1,0-2.2-0.2-3-0.6c-0.9-0.4-1.6-0.9-2.1-1.6c-1-1.2-1.5-2.6-1.5-4.2c0-1.9,0.6-3.5,1.9-4.7c1.3-1.2,2.8-1.7,4.7-1.7
		c2.1,0,3.7,0.8,4.7,2.3C177.3,34.6,177.6,35.5,177.6,36.4z M172.7,37.1c0.6,0,0.9-0.2,0.9-0.7c0-0.4-0.1-0.6-0.4-0.9
		c-0.3-0.2-0.7-0.3-1.2-0.3c-0.5,0-1,0.2-1.5,0.6c-0.5,0.4-0.7,0.8-0.7,1.3H172.7z"/>
	<path class="st1" d="M190.8,36.4c0,0.9-0.2,1.6-0.7,2.1c-0.5,0.5-1,0.7-1.6,0.7h-5.5c0,0.4,0.3,0.8,0.8,1.1c0.5,0.3,1,0.4,1.5,0.4
		c0.9,0,1.6-0.1,2.1-0.3l0.3-0.1c0.4-0.2,0.7-0.3,0.9-0.3c0.5,0,0.9,0.3,1.3,1c0.2,0.4,0.3,0.8,0.3,1.1c0,1.4-1.6,2.1-4.9,2.1
		c-1.1,0-2.2-0.2-3-0.6c-0.9-0.4-1.6-0.9-2.1-1.6c-1-1.2-1.5-2.6-1.5-4.2c0-1.9,0.6-3.5,1.9-4.7c1.3-1.2,2.8-1.7,4.7-1.7
		c2.1,0,3.7,0.8,4.7,2.3C190.6,34.6,190.8,35.5,190.8,36.4z M186,37.1c0.6,0,0.9-0.2,0.9-0.7c0-0.4-0.1-0.6-0.4-0.9
		c-0.3-0.2-0.7-0.3-1.2-0.3c-0.5,0-1,0.2-1.5,0.6c-0.5,0.4-0.7,0.8-0.7,1.3H186z"/>
</g>
<g>
	<path class="st0" d="M45.6,54.8c0.5-0.8,1.1-1.1,1.8-1.1c1.1,0,1.9,0.5,2.5,1.4c0.1-0.2,0.3-0.3,0.4-0.5c0.2-0.2,0.4-0.4,0.8-0.6
		c0.4-0.2,0.7-0.3,1.1-0.3c0.9,0,1.6,0.3,2.2,1c0.6,0.7,0.9,1.8,0.9,3.3v2.8c0,0.2,0,0.4,0,0.6c0,0.1-0.1,0.3-0.2,0.4
		c-0.1,0.3-0.6,0.4-1.2,0.4c-0.7,0-1.1-0.2-1.2-0.5c-0.1-0.2-0.1-0.3-0.1-0.4c0-0.1,0-0.3,0-0.6v-2.8c0-0.9-0.3-1.4-1-1.4
		c-0.4,0-0.6,0.1-0.8,0.4c-0.1,0.2-0.2,0.6-0.2,1v2.8c0,0.3,0,0.4,0,0.6c0,0.1-0.1,0.3-0.2,0.4c-0.2,0.3-0.6,0.4-1.3,0.4
		c-0.7,0-1.1-0.2-1.2-0.5c-0.1-0.2-0.1-0.3-0.1-0.4c0-0.1,0-0.3,0-0.6v-2.8c0-0.9-0.3-1.4-1-1.4c-0.6,0-1,0.5-1,1.4v2.9
		c0,0.2,0,0.4,0,0.6c0,0.1-0.1,0.3-0.2,0.4c-0.2,0.3-0.6,0.4-1.3,0.4c-0.7,0-1.1-0.1-1.2-0.4c-0.1-0.2-0.1-0.3-0.1-0.4
		c0-0.1,0-0.3,0-0.6v-5.7c0-0.2,0-0.4,0-0.6c0-0.1,0.1-0.3,0.2-0.4c0.2-0.3,0.5-0.4,1.1-0.4s1,0.1,1.2,0.3
		C45.5,54.1,45.6,54.4,45.6,54.8z"/>
	<path class="st0" d="M62,54.6c0.1-0.6,0.5-0.9,1.3-0.9c0.4,0,0.7,0,0.9,0.1c0.2,0.1,0.3,0.2,0.4,0.3c0.1,0.2,0.1,0.3,0.1,0.4
		s0,0.3,0,0.6v5.6c0,0.2,0,0.4,0,0.6c0,0.1-0.1,0.3-0.1,0.4c-0.2,0.3-0.5,0.4-1.1,0.4c-0.6,0-1-0.1-1.2-0.2s-0.3-0.4-0.3-0.6
		c-0.4,0.6-1.1,0.9-2,0.9c-0.9,0-1.8-0.4-2.6-1.3s-1.2-1.8-1.2-3s0.4-2.1,1.2-3c0.8-0.8,1.7-1.3,2.6-1.3c0.4,0,0.7,0.1,1,0.2
		c0.3,0.1,0.5,0.2,0.6,0.4C61.9,54.3,62,54.4,62,54.6z M59.1,57.9c0,0.4,0.1,0.7,0.4,1s0.6,0.4,1,0.4c0.4,0,0.7-0.1,1-0.4
		c0.3-0.3,0.4-0.6,0.4-1c0-0.3-0.1-0.7-0.4-1c-0.3-0.3-0.6-0.5-1-0.5s-0.8,0.2-1,0.5S59.1,57.6,59.1,57.9z"/>
	<path class="st0" d="M70.9,53.6c1.1,0,2,0.4,2.7,1.2c0.7,0.8,1.1,1.8,1.1,3v2.8c0,0.2,0,0.4,0,0.6c0,0.1-0.1,0.3-0.1,0.4
		c-0.2,0.3-0.6,0.4-1.3,0.4c-0.8,0-1.2-0.2-1.3-0.6c-0.1-0.2-0.1-0.5-0.1-0.8v-2.8c0-0.4-0.1-0.8-0.4-1c-0.3-0.2-0.6-0.4-1-0.4
		c-0.4,0-0.8,0.1-1,0.4c-0.3,0.3-0.4,0.6-0.4,1v2.9c0,0.2,0,0.4,0,0.6c0,0.1-0.1,0.3-0.2,0.4c-0.1,0.3-0.6,0.4-1.2,0.4
		c-0.7,0-1.1-0.1-1.2-0.4c-0.1-0.2-0.1-0.3-0.1-0.4c0-0.1,0-0.3,0-0.6V55c0-0.2,0-0.4,0-0.5c0-0.1,0.1-0.3,0.2-0.4
		c0.2-0.3,0.6-0.4,1.2-0.4c0.7,0,1.1,0.1,1.2,0.4c0.1,0.2,0.2,0.4,0.2,0.7c0-0.1,0.1-0.2,0.3-0.3c0.2-0.1,0.3-0.3,0.4-0.3
		C70,53.8,70.4,53.6,70.9,53.6z"/>
	<path class="st0" d="M81.4,54.6c0.1-0.6,0.5-0.9,1.3-0.9c0.4,0,0.7,0,0.9,0.1c0.2,0.1,0.3,0.2,0.4,0.3c0.1,0.2,0.1,0.3,0.1,0.4
		s0,0.3,0,0.6v5.6c0,0.2,0,0.4,0,0.6c0,0.1-0.1,0.3-0.1,0.4c-0.2,0.3-0.5,0.4-1.1,0.4c-0.6,0-1-0.1-1.2-0.2s-0.3-0.4-0.3-0.6
		c-0.4,0.6-1.1,0.9-2,0.9c-0.9,0-1.8-0.4-2.6-1.3s-1.2-1.8-1.2-3s0.4-2.1,1.2-3c0.8-0.8,1.7-1.3,2.6-1.3c0.4,0,0.7,0.1,1,0.2
		c0.3,0.1,0.5,0.2,0.6,0.4C81.2,54.3,81.3,54.4,81.4,54.6z M78.5,57.9c0,0.4,0.1,0.7,0.4,1s0.6,0.4,1,0.4c0.4,0,0.7-0.1,1-0.4
		c0.3-0.3,0.4-0.6,0.4-1c0-0.3-0.1-0.7-0.4-1c-0.3-0.3-0.6-0.5-1-0.5s-0.8,0.2-1,0.5S78.5,57.6,78.5,57.9z"/>
	<path class="st0" d="M90.9,61.1c-0.4,0.5-1.1,0.8-2,0.8c-0.9,0-1.7-0.4-2.5-1.2c-0.8-0.8-1.2-1.8-1.2-2.9c0-1.1,0.4-2.1,1.2-2.9
		s1.6-1.2,2.6-1.2c0.4,0,0.7,0.1,1,0.2c0.3,0.1,0.5,0.3,0.6,0.4c0.1,0.1,0.2,0.2,0.3,0.3c0-0.3,0.1-0.5,0.3-0.7
		c0.2-0.2,0.5-0.2,0.9-0.2s0.7,0,0.9,0.1c0.2,0.1,0.3,0.2,0.4,0.3c0.1,0.2,0.1,0.3,0.1,0.4s0,0.3,0,0.5v6.7c0,1.2-0.4,2.2-1.3,3
		c-0.9,0.8-1.8,1.1-2.9,1.1c-0.8,0-1.6-0.2-2.3-0.6c-0.7-0.4-1.1-0.8-1.1-1.1c0-0.4,0.2-0.8,0.5-1.1c0.2-0.2,0.4-0.4,0.5-0.5
		c0.1-0.1,0.2-0.1,0.4-0.1c0.2,0,0.3,0.1,0.5,0.2c0.5,0.4,1.1,0.6,1.7,0.6c0.4,0,0.7-0.2,1-0.5c0.3-0.3,0.4-0.7,0.4-1.2V61.1z
		 M88,57.8c0,0.3,0.1,0.7,0.4,0.9c0.3,0.3,0.6,0.4,1,0.4s0.7-0.1,1-0.4s0.4-0.6,0.4-0.9s-0.1-0.7-0.4-1s-0.6-0.4-1-0.4
		c-0.4,0-0.8,0.1-1,0.4C88.2,57.1,88,57.4,88,57.8z"/>
	<path class="st0" d="M97.7,54.8c0.5-0.8,1.1-1.1,1.8-1.1c1.1,0,1.9,0.5,2.5,1.4c0.1-0.2,0.3-0.3,0.4-0.5c0.2-0.2,0.4-0.4,0.8-0.6
		c0.4-0.2,0.7-0.3,1.1-0.3c0.9,0,1.6,0.3,2.2,1c0.6,0.7,0.9,1.8,0.9,3.3v2.8c0,0.2,0,0.4,0,0.6c0,0.1-0.1,0.3-0.2,0.4
		c-0.1,0.3-0.6,0.4-1.2,0.4c-0.7,0-1.1-0.2-1.2-0.5c-0.1-0.2-0.1-0.3-0.1-0.4c0-0.1,0-0.3,0-0.6v-2.8c0-0.9-0.3-1.4-1-1.4
		c-0.4,0-0.6,0.1-0.8,0.4s-0.2,0.6-0.2,1v2.8c0,0.3,0,0.4,0,0.6c0,0.1-0.1,0.3-0.2,0.4c-0.2,0.3-0.6,0.4-1.3,0.4
		c-0.7,0-1.1-0.2-1.2-0.5c-0.1-0.2-0.1-0.3-0.1-0.4c0-0.1,0-0.3,0-0.6v-2.8c0-0.9-0.3-1.4-1-1.4c-0.6,0-1,0.5-1,1.4v2.9
		c0,0.2,0,0.4,0,0.6c0,0.1-0.1,0.3-0.2,0.4c-0.2,0.3-0.6,0.4-1.3,0.4c-0.7,0-1.1-0.1-1.2-0.4C95,61.6,95,61.4,95,61.3
		c0-0.1,0-0.3,0-0.6v-5.7c0-0.2,0-0.4,0-0.6c0-0.1,0.1-0.3,0.2-0.4c0.2-0.3,0.5-0.4,1.1-0.4s1,0.1,1.2,0.3
		C97.6,54.1,97.7,54.4,97.7,54.8z"/>
	<path class="st0" d="M116.9,56.9c0,0.7-0.2,1.2-0.5,1.5s-0.7,0.5-1.1,0.5h-3.8c0,0.3,0.2,0.6,0.5,0.8c0.4,0.2,0.7,0.3,1.1,0.3
		c0.6,0,1.1-0.1,1.5-0.2l0.2-0.1c0.3-0.1,0.5-0.2,0.6-0.2c0.3,0,0.6,0.2,0.9,0.7c0.1,0.3,0.2,0.5,0.2,0.7c0,1-1.1,1.4-3.4,1.4
		c-0.8,0-1.5-0.1-2.1-0.4c-0.6-0.3-1.1-0.6-1.4-1.1c-0.7-0.9-1-1.8-1-2.9c0-1.4,0.4-2.4,1.3-3.3c0.9-0.8,2-1.2,3.3-1.2
		c1.5,0,2.6,0.5,3.3,1.6C116.7,55.6,116.9,56.2,116.9,56.9z M113.5,57.4c0.4,0,0.6-0.2,0.6-0.5c0-0.2-0.1-0.4-0.3-0.6
		c-0.2-0.2-0.5-0.2-0.8-0.2c-0.4,0-0.7,0.1-1,0.4c-0.3,0.3-0.5,0.6-0.5,0.9H113.5z"/>
	<path class="st0" d="M122.7,53.6c1.1,0,2,0.4,2.7,1.2c0.7,0.8,1.1,1.8,1.1,3v2.8c0,0.2,0,0.4,0,0.6c0,0.1-0.1,0.3-0.1,0.4
		c-0.2,0.3-0.6,0.4-1.3,0.4c-0.8,0-1.2-0.2-1.3-0.6c-0.1-0.2-0.1-0.5-0.1-0.8v-2.8c0-0.4-0.1-0.8-0.4-1c-0.3-0.2-0.6-0.4-1-0.4
		s-0.8,0.1-1,0.4c-0.3,0.3-0.4,0.6-0.4,1v2.9c0,0.2,0,0.4,0,0.6c0,0.1-0.1,0.3-0.2,0.4c-0.1,0.3-0.6,0.4-1.2,0.4
		c-0.7,0-1.1-0.1-1.2-0.4c-0.1-0.2-0.1-0.3-0.1-0.4c0-0.1,0-0.3,0-0.6V55c0-0.2,0-0.4,0-0.5c0-0.1,0.1-0.3,0.2-0.4
		c0.2-0.3,0.6-0.4,1.2-0.4c0.7,0,1.1,0.1,1.2,0.4c0.1,0.2,0.2,0.4,0.2,0.7c0-0.1,0.1-0.2,0.3-0.3c0.2-0.1,0.3-0.3,0.4-0.3
		C121.8,53.8,122.2,53.6,122.7,53.6z"/>
	<path class="st0" d="M132.6,56.5l-1-0.1v2.2c0,0.3,0,0.5,0.1,0.6c0.1,0.1,0.3,0.2,0.5,0.2s0.4,0,0.6,0c0.1,0,0.3,0.1,0.4,0.2
		c0.2,0.1,0.4,0.5,0.4,1.1c0,0.7-0.2,1.1-0.5,1.2c-0.2,0.1-0.3,0.1-0.4,0.1c-0.1,0-0.3,0-0.5,0c-1.1,0-2-0.3-2.5-0.8
		c-0.6-0.5-0.9-1.4-0.9-2.6v-2.4c-0.2,0-0.4,0-0.7,0c-0.2,0-0.4-0.1-0.6-0.3c-0.2-0.2-0.2-0.5-0.2-0.9c0-0.4,0-0.8,0.1-1
		c0.1-0.2,0.1-0.3,0.2-0.4c0.2-0.1,0.4-0.2,0.6-0.2l0.5,0.1v-1.7c0-0.2,0-0.4,0-0.5c0-0.1,0.1-0.2,0.2-0.4c0.1-0.3,0.6-0.4,1.2-0.4
		c0.7,0,1.2,0.2,1.3,0.6c0.1,0.2,0.1,0.4,0.1,0.8v1.6c0.5,0,0.8-0.1,1.1-0.1c0.2,0,0.4,0,0.5,0c0.1,0,0.3,0.1,0.4,0.2
		c0.3,0.1,0.4,0.6,0.4,1.2c0,0.7-0.1,1.1-0.4,1.2c-0.2,0.1-0.3,0.1-0.4,0.1C133.1,56.5,132.9,56.5,132.6,56.5z"/>
	<path class="st0" d="M139.1,61.4c-0.2-0.1-0.3-0.3-0.3-0.6c0-0.3,0.2-0.7,0.6-1.3c0.1-0.2,0.3-0.3,0.6-0.3s0.6,0.1,1.1,0.4
		c0.5,0.3,0.9,0.4,1.2,0.4c0.7,0,1-0.1,1-0.4c0-0.2-0.4-0.4-1.1-0.5c-0.7-0.1-1.4-0.3-2-0.8c-0.3-0.2-0.6-0.5-0.8-0.9
		s-0.3-0.9-0.3-1.5c0-1.7,1.2-2.5,3.5-2.5c0.8,0,1.5,0.2,2.4,0.5c0.4,0.2,0.6,0.4,0.6,0.6c0,0.3-0.1,0.6-0.4,1
		c-0.2,0.4-0.5,0.6-0.7,0.6c-0.1,0-0.4-0.1-0.7-0.2c-0.3-0.2-0.7-0.2-1.1-0.2c-0.6,0-1,0.1-1,0.4c0,0.3,0.4,0.5,1.1,0.6
		c0.7,0.1,1.4,0.3,2.1,0.6c0.3,0.2,0.6,0.4,0.8,0.8s0.3,0.8,0.3,1.4s-0.1,1-0.3,1.4s-0.5,0.7-0.9,0.9c-0.7,0.3-1.6,0.5-2.6,0.5
		S140.1,62,139.1,61.4z"/>
	<path class="st0" d="M154.8,53.7c0.6,0.3,1,0.6,1,1c0,0.2,0,0.4-0.1,0.5s-0.1,0.3-0.1,0.3l-4.2,9.5c-0.1,0.2-0.2,0.4-0.2,0.5
		c-0.1,0.1-0.2,0.2-0.3,0.3c-0.1,0.1-0.3,0.1-0.5,0.1c-0.2,0-0.5-0.1-0.9-0.2c-0.6-0.3-1-0.6-1-1c0-0.3,0.5-1.5,1.5-3.7l-3.2-5.4
		c-0.2-0.4-0.3-0.6-0.3-0.8c0-0.3,0.3-0.7,0.9-1c0.4-0.2,0.7-0.3,0.9-0.3c0.2,0,0.4,0,0.5,0.1c0.1,0.1,0.2,0.2,0.3,0.3
		c0.1,0.1,0.4,0.6,0.9,1.5c0.5,0.9,1,1.8,1.5,2.5c0.1-0.2,0.3-0.8,0.9-2s0.8-1.8,0.8-1.8c0-0.1,0.1-0.2,0.2-0.3
		c0.1-0.2,0.3-0.3,0.6-0.3C154.2,53.5,154.5,53.6,154.8,53.7z"/>
	<path class="st0" d="M156.7,61.4c-0.2-0.1-0.3-0.3-0.3-0.6c0-0.3,0.2-0.7,0.6-1.3c0.1-0.2,0.3-0.3,0.6-0.3s0.6,0.1,1.1,0.4
		c0.5,0.3,0.9,0.4,1.2,0.4c0.7,0,1-0.1,1-0.4c0-0.2-0.4-0.4-1.1-0.5c-0.7-0.1-1.4-0.3-2-0.8c-0.3-0.2-0.6-0.5-0.8-0.9
		s-0.3-0.9-0.3-1.5c0-1.7,1.2-2.5,3.5-2.5c0.8,0,1.5,0.2,2.4,0.5c0.4,0.2,0.6,0.4,0.6,0.6c0,0.3-0.1,0.6-0.4,1
		c-0.2,0.4-0.5,0.6-0.7,0.6c-0.1,0-0.4-0.1-0.7-0.2c-0.3-0.2-0.7-0.2-1.1-0.2c-0.6,0-1,0.1-1,0.4c0,0.3,0.4,0.5,1.1,0.6
		c0.7,0.1,1.4,0.3,2.1,0.6c0.3,0.2,0.6,0.4,0.8,0.8s0.3,0.8,0.3,1.4s-0.1,1-0.3,1.4s-0.5,0.7-0.9,0.9c-0.7,0.3-1.6,0.5-2.6,0.5
		S157.7,62,156.7,61.4z"/>
	<path class="st0" d="M169.5,56.5l-1-0.1v2.2c0,0.3,0,0.5,0.1,0.6c0.1,0.1,0.3,0.2,0.5,0.2s0.4,0,0.6,0c0.1,0,0.3,0.1,0.4,0.2
		c0.2,0.1,0.4,0.5,0.4,1.1c0,0.7-0.2,1.1-0.5,1.2c-0.2,0.1-0.3,0.1-0.4,0.1c-0.1,0-0.3,0-0.5,0c-1.1,0-2-0.3-2.5-0.8
		c-0.6-0.5-0.9-1.4-0.9-2.6v-2.4c-0.2,0-0.4,0-0.7,0c-0.2,0-0.4-0.1-0.6-0.3c-0.2-0.2-0.2-0.5-0.2-0.9c0-0.4,0-0.8,0.1-1
		c0.1-0.2,0.1-0.3,0.2-0.4c0.2-0.1,0.4-0.2,0.6-0.2l0.5,0.1v-1.7c0-0.2,0-0.4,0-0.5c0-0.1,0.1-0.2,0.2-0.4c0.1-0.3,0.6-0.4,1.2-0.4
		c0.7,0,1.2,0.2,1.3,0.6c0.1,0.2,0.1,0.4,0.1,0.8v1.6c0.5,0,0.8-0.1,1.1-0.1c0.2,0,0.4,0,0.5,0c0.1,0,0.3,0.1,0.4,0.2
		c0.3,0.1,0.4,0.6,0.4,1.2c0,0.7-0.1,1.1-0.4,1.2c-0.2,0.1-0.3,0.1-0.4,0.1C169.9,56.5,169.7,56.5,169.5,56.5z"/>
	<path class="st0" d="M180,56.9c0,0.7-0.2,1.2-0.5,1.5s-0.7,0.5-1.1,0.5h-3.8c0,0.3,0.2,0.6,0.5,0.8c0.4,0.2,0.7,0.3,1.1,0.3
		c0.6,0,1.1-0.1,1.5-0.2l0.2-0.1c0.3-0.1,0.5-0.2,0.6-0.2c0.3,0,0.6,0.2,0.9,0.7c0.1,0.3,0.2,0.5,0.2,0.7c0,1-1.1,1.4-3.4,1.4
		c-0.8,0-1.5-0.1-2.1-0.4c-0.6-0.3-1.1-0.6-1.4-1.1c-0.7-0.9-1-1.8-1-2.9c0-1.4,0.4-2.4,1.3-3.3c0.9-0.8,2-1.2,3.3-1.2
		c1.5,0,2.6,0.5,3.3,1.6C179.8,55.6,180,56.2,180,56.9z M176.6,57.4c0.4,0,0.6-0.2,0.6-0.5c0-0.2-0.1-0.4-0.3-0.6
		c-0.2-0.2-0.5-0.2-0.8-0.2c-0.4,0-0.7,0.1-1,0.4c-0.3,0.3-0.5,0.6-0.5,0.9H176.6z"/>
	<path class="st0" d="M183.8,54.8c0.5-0.8,1.1-1.1,1.8-1.1c1.1,0,1.9,0.5,2.5,1.4c0.1-0.2,0.3-0.3,0.4-0.5c0.2-0.2,0.4-0.4,0.8-0.6
		c0.4-0.2,0.7-0.3,1.1-0.3c0.9,0,1.6,0.3,2.2,1c0.6,0.7,0.9,1.8,0.9,3.3v2.8c0,0.2,0,0.4,0,0.6c0,0.1-0.1,0.3-0.2,0.4
		c-0.1,0.3-0.6,0.4-1.2,0.4c-0.7,0-1.1-0.2-1.2-0.5c-0.1-0.2-0.1-0.3-0.1-0.4c0-0.1,0-0.3,0-0.6v-2.8c0-0.9-0.3-1.4-1-1.4
		c-0.4,0-0.6,0.1-0.8,0.4c-0.1,0.2-0.2,0.6-0.2,1v2.8c0,0.3,0,0.4,0,0.6c0,0.1-0.1,0.3-0.2,0.4c-0.2,0.3-0.6,0.4-1.3,0.4
		c-0.7,0-1.1-0.2-1.2-0.5c-0.1-0.2-0.1-0.3-0.1-0.4c0-0.1,0-0.3,0-0.6v-2.8c0-0.9-0.3-1.4-1-1.4c-0.6,0-1,0.5-1,1.4v2.9
		c0,0.2,0,0.4,0,0.6c0,0.1-0.1,0.3-0.2,0.4c-0.2,0.3-0.6,0.4-1.3,0.4s-1.1-0.1-1.2-0.4c-0.1-0.2-0.1-0.3-0.1-0.4c0-0.1,0-0.3,0-0.6
		v-5.7c0-0.2,0-0.4,0-0.6c0-0.1,0.1-0.3,0.2-0.4c0.2-0.3,0.5-0.4,1.1-0.4c0.6,0,1,0.1,1.2,0.3C183.7,54.1,183.8,54.4,183.8,54.8z"/>
</g>
</svg>
