<?xml version="1.0" encoding="utf-8"?>
<!-- Generator: Adobe Illustrator 26.5.0, SVG Export Plug-In . SVG Version: 6.00 Build 0)  -->
<svg version="1.1" xmlns="http://www.w3.org/2000/svg" xmlns:xlink="http://www.w3.org/1999/xlink" x="0px" y="0px"
	 viewBox="0 0 2000 2000" style="enable-background:new 0 0 2000 2000;" xml:space="preserve">
<style type="text/css">
	.st0{fill:#FFC403;}
	.st1{fill:#231F20;}
	.st2{fill:#FFFFFF;}
	.st3{fill:#80E6FE;}
	.st4{fill:none;stroke:#00609E;stroke-width:8;stroke-linecap:round;stroke-linejoin:round;stroke-miterlimit:10;}
	.st5{fill:#FFFFFF;stroke:#00609E;stroke-width:8;stroke-linecap:round;stroke-linejoin:round;stroke-miterlimit:10;}
	.st6{fill:#63BDFA;stroke:#00609E;stroke-width:8;stroke-linecap:round;stroke-linejoin:round;stroke-miterlimit:10;}
	.st7{fill:none;stroke:#00609E;stroke-width:10;stroke-linecap:round;stroke-linejoin:round;stroke-miterlimit:10;}
	.st8{fill:#C1F8FA;stroke:#00609E;stroke-width:8;stroke-linecap:round;stroke-linejoin:round;stroke-miterlimit:10;}
	.st9{fill:#00609E;}
</style>
<symbol  id="New_Symbol_20" viewBox="-2000 -79.3 4000 158.6">
	<g id="XMLID_8849_">
		<rect id="XMLID_8872_" x="-2000" y="-79.3" class="st0" width="2000" height="158.6"/>
		<path id="XMLID_8850_" class="st1" d="M-1631.6,79.3l157.9-158.6h52.6l-157.9,158.6H-1631.6z M-1526.3,79.3l157.9-158.6h52.6
			l-157.9,158.6H-1526.3z M-1421.1,79.3l157.9-158.6h52.6l-157.9,158.6H-1421.1z M-1105.3,79.3l157.9-158.6h52.6l-157.9,158.6
			H-1105.3z M-1210.5,79.3l157.9-158.6h52.6l-157.9,158.6H-1210.5z M-2000,26.5l105.3-105.8h52.6L-2000,79.3V26.5z M-1736.8,79.3
			l157.9-158.6h52.6l-157.9,158.6H-1736.8z M-2000-79.3L-2000-79.3l52.7,0l-52.7,52.9V-79.3z M-1842.1,79.3l157.9-158.6h52.6
			l-157.9,158.6H-1842.1z M-1947.4,79.3l157.9-158.6h52.6l-157.9,158.6H-1947.4z M-1315.8,79.3l157.9-158.6h52.6l-157.9,158.6
			H-1315.8z M-368.4,79.3l157.9-158.6h52.6L-315.8,79.3H-368.4z M-263.2,79.3l157.9-158.6h52.6L-210.5,79.3H-263.2z M-473.7,79.3
			l157.9-158.6h52.6L-421.1,79.3H-473.7z M-1000,79.3l157.9-158.6h52.6L-947.4,79.3H-1000z M-789.5,79.3l157.9-158.6h52.6
			L-736.8,79.3H-789.5z M-894.7,79.3l157.9-158.6h52.6L-842.1,79.3H-894.7z M-578.9,79.3L-421-79.3h52.6L-526.3,79.3H-578.9z
			 M-684.2,79.3l157.9-158.6h52.6L-631.6,79.3H-684.2z M-52.6,79.3L0,26.5v52.9H-52.6z M-157.9,79.3L0-79.3v52.9L-105.3,79.3H-157.9
			z"/>
	</g>
	<g id="XMLID_8615_">
		<rect id="XMLID_8848_" y="-79.3" class="st0" width="2000" height="158.6"/>
		<path id="XMLID_8616_" class="st1" d="M368.4,79.3L526.3-79.3H579L421.1,79.3H368.4z M473.7,79.3L631.6-79.3h52.6L526.3,79.3
			H473.7z M578.9,79.3L736.9-79.3h52.6L631.6,79.3H578.9z M894.7,79.3l157.9-158.6h52.6L947.4,79.3H894.7z M789.5,79.3L947.4-79.3
			h52.6L842.1,79.3H789.5z M0,26.5L105.3-79.3h52.6L0,79.3V26.5z M263.2,79.3L421.1-79.3h52.6L315.8,79.3H263.2z M0-79.3L0-79.3
			l52.7,0L0-26.4V-79.3z M157.9,79.3L315.8-79.3h52.6L210.5,79.3H157.9z M52.6,79.3L210.5-79.3h52.6L105.3,79.3H52.6z M684.2,79.3
			L842.1-79.3h52.6L736.8,79.3H684.2z M1631.6,79.3l157.9-158.6h52.6L1684.2,79.3H1631.6z M1736.8,79.3l157.9-158.6h52.6
			L1789.5,79.3H1736.8z M1526.3,79.3l157.9-158.6h52.6L1578.9,79.3H1526.3z M1000,79.3l157.9-158.6h52.6L1052.6,79.3H1000z
			 M1210.5,79.3l157.9-158.6h52.6L1263.2,79.3H1210.5z M1105.3,79.3l157.9-158.6h52.6L1157.9,79.3H1105.3z M1421.1,79.3L1579-79.3
			h52.6L1473.7,79.3H1421.1z M1315.8,79.3l157.9-158.6h52.6L1368.4,79.3H1315.8z M1947.4,79.3l52.6-52.9v52.9H1947.4z M1842.1,79.3
			L2000-79.3v52.9L1894.7,79.3H1842.1z"/>
	</g>
</symbol>
<symbol  id="New_Symbol_21" viewBox="-2000 -76.2 4000 152.5">
	<g id="XMLID_8764_">
		<rect id="XMLID_8876_" x="-2000" y="-76.2" class="st0" width="2000" height="152.5"/>
		<g id="XMLID_8765_">
			<g id="XMLID_8816_">
				<polygon id="XMLID_8875_" class="st1" points="-1923.8,0 -2000,-76.2 -2000,-25.7 -1974.3,0 -2000,25.7 -2000,76.2 				"/>
				<path id="XMLID_8826_" class="st1" d="M-1050.6,76.2l50.6-50.6v50.6H-1050.6z M-1000-76.2v50.6l-50.6-50.6H-1000z"/>
				<polygon id="XMLID_8825_" class="st1" points="-1823.8,0 -1900,-76.2 -1950.6,-76.2 -1874.3,0 -1950.6,76.2 -1900,76.2 				"/>
				<polygon id="XMLID_8824_" class="st1" points="-1723.8,0 -1800,-76.2 -1850.6,-76.2 -1774.3,0 -1850.6,76.2 -1800,76.2 				"/>
				<polygon id="XMLID_8823_" class="st1" points="-1623.8,0 -1700,-76.2 -1750.6,-76.2 -1674.3,0 -1750.6,76.2 -1700,76.2 				"/>
				<polygon id="XMLID_8822_" class="st1" points="-1523.8,0 -1600,-76.2 -1650.6,-76.2 -1574.3,0 -1650.6,76.2 -1600,76.2 				"/>
				<polygon id="XMLID_8821_" class="st1" points="-1423.8,0 -1500,-76.2 -1550.6,-76.2 -1474.3,0 -1550.6,76.2 -1500,76.2 				"/>
				<polygon id="XMLID_8820_" class="st1" points="-1323.8,0 -1400,-76.2 -1450.6,-76.2 -1374.3,0 -1450.6,76.2 -1400,76.2 				"/>
				<polygon id="XMLID_8819_" class="st1" points="-1223.8,0 -1300,-76.2 -1350.6,-76.2 -1274.3,0 -1350.6,76.2 -1300,76.2 				"/>
				<polygon id="XMLID_8818_" class="st1" points="-1123.8,0 -1200,-76.2 -1250.6,-76.2 -1174.3,0 -1250.6,76.2 -1200,76.2 				"/>
				<polygon id="XMLID_8817_" class="st1" points="-1023.8,0 -1100,-76.2 -1150.6,-76.2 -1074.3,0 -1150.6,76.2 -1100,76.2 				"/>
			</g>
			<g id="XMLID_8766_">
				<polygon id="XMLID_8793_" class="st1" points="-923.8,0 -1000,-76.2 -1000,-25.7 -974.3,0 -1000,25.7 -1000,76.2 				"/>
				<path id="XMLID_8776_" class="st1" d="M-50.6,76.2L0,25.7v50.6H-50.6z M0-76.2v50.6l-50.6-50.6H0z"/>
				<polygon id="XMLID_8775_" class="st1" points="-823.8,0 -900,-76.2 -950.6,-76.2 -874.3,0 -950.6,76.2 -900,76.2 				"/>
				<polygon id="XMLID_8774_" class="st1" points="-723.8,0 -800,-76.2 -850.6,-76.2 -774.3,0 -850.6,76.2 -800,76.2 				"/>
				<polygon id="XMLID_8773_" class="st1" points="-623.8,0 -700,-76.2 -750.6,-76.2 -674.3,0 -750.6,76.2 -700,76.2 				"/>
				<polygon id="XMLID_8772_" class="st1" points="-523.8,0 -600,-76.2 -650.6,-76.2 -574.3,0 -650.6,76.2 -600,76.2 				"/>
				<polygon id="XMLID_8771_" class="st1" points="-423.8,0 -500,-76.2 -550.6,-76.2 -474.3,0 -550.6,76.2 -500,76.2 				"/>
				<polygon id="XMLID_8770_" class="st1" points="-323.8,0 -400,-76.2 -450.6,-76.2 -374.3,0 -450.6,76.2 -400,76.2 				"/>
				<polygon id="XMLID_8769_" class="st1" points="-223.8,0 -300,-76.2 -350.6,-76.2 -274.3,0 -350.6,76.2 -300,76.2 				"/>
				<polygon id="XMLID_8768_" class="st1" points="-123.8,0 -200,-76.2 -250.6,-76.2 -174.3,0 -250.6,76.2 -200,76.2 				"/>
				<polygon id="XMLID_8767_" class="st1" points="-23.8,0 -100,-76.2 -150.6,-76.2 -74.3,0 -150.6,76.2 -100,76.2 				"/>
			</g>
		</g>
	</g>
	<g id="XMLID_1890_">
		<rect id="XMLID_8763_" y="-76.2" class="st0" width="2000" height="152.5"/>
		<g id="XMLID_1891_">
			<g id="XMLID_8624_">
				<polygon id="XMLID_8762_" class="st1" points="76.2,0 0,-76.2 0,-25.7 25.7,0 0,25.7 0,76.2 				"/>
				<path id="XMLID_8683_" class="st1" d="M949.4,76.2l50.6-50.6v50.6H949.4z M1000-76.2v50.6l-50.6-50.6H1000z"/>
				<polygon id="XMLID_8678_" class="st1" points="176.2,0 100,-76.2 49.4,-76.2 125.7,0 49.4,76.2 100,76.2 				"/>
				<polygon id="XMLID_8676_" class="st1" points="276.2,0 200,-76.2 149.4,-76.2 225.7,0 149.4,76.2 200,76.2 				"/>
				<polygon id="XMLID_8675_" class="st1" points="376.2,0 300,-76.2 249.4,-76.2 325.7,0 249.4,76.2 300,76.2 				"/>
				<polygon id="XMLID_8674_" class="st1" points="476.2,0 400,-76.2 349.4,-76.2 425.7,0 349.4,76.2 400,76.2 				"/>
				<polygon id="XMLID_8673_" class="st1" points="576.2,0 500,-76.2 449.4,-76.2 525.7,0 449.4,76.2 500,76.2 				"/>
				<polygon id="XMLID_8628_" class="st1" points="676.2,0 600,-76.2 549.4,-76.2 625.7,0 549.4,76.2 600,76.2 				"/>
				<polygon id="XMLID_8627_" class="st1" points="776.2,0 700,-76.2 649.4,-76.2 725.7,0 649.4,76.2 700,76.2 				"/>
				<polygon id="XMLID_8626_" class="st1" points="876.2,0 800,-76.2 749.4,-76.2 825.7,0 749.4,76.2 800,76.2 				"/>
				<polygon id="XMLID_8625_" class="st1" points="976.2,0 900,-76.2 849.4,-76.2 925.7,0 849.4,76.2 900,76.2 				"/>
			</g>
			<g id="XMLID_5761_">
				<polygon id="XMLID_8623_" class="st1" points="1076.2,0 1000,-76.2 1000,-25.7 1025.7,0 1000,25.7 1000,76.2 				"/>
				<path id="XMLID_8620_" class="st1" d="M1949.4,76.2l50.6-50.6v50.6H1949.4z M2000-76.2v50.6l-50.6-50.6H2000z"/>
				<polygon id="XMLID_8619_" class="st1" points="1176.2,0 1100,-76.2 1049.4,-76.2 1125.7,0 1049.4,76.2 1100,76.2 				"/>
				<polygon id="XMLID_8618_" class="st1" points="1276.2,0 1200,-76.2 1149.4,-76.2 1225.7,0 1149.4,76.2 1200,76.2 				"/>
				<polygon id="XMLID_8617_" class="st1" points="1376.2,0 1300,-76.2 1249.4,-76.2 1325.7,0 1249.4,76.2 1300,76.2 				"/>
				<polygon id="XMLID_5775_" class="st1" points="1476.2,0 1400,-76.2 1349.4,-76.2 1425.7,0 1349.4,76.2 1400,76.2 				"/>
				<polygon id="XMLID_5773_" class="st1" points="1576.2,0 1500,-76.2 1449.4,-76.2 1525.7,0 1449.4,76.2 1500,76.2 				"/>
				<polygon id="XMLID_5772_" class="st1" points="1676.2,0 1600,-76.2 1549.4,-76.2 1625.7,0 1549.4,76.2 1600,76.2 				"/>
				<polygon id="XMLID_5771_" class="st1" points="1776.2,0 1700,-76.2 1649.4,-76.2 1725.7,0 1649.4,76.2 1700,76.2 				"/>
				<polygon id="XMLID_5770_" class="st1" points="1876.2,0 1800,-76.2 1749.4,-76.2 1825.7,0 1749.4,76.2 1800,76.2 				"/>
				<polygon id="XMLID_5763_" class="st1" points="1976.2,0 1900,-76.2 1849.4,-76.2 1925.7,0 1849.4,76.2 1900,76.2 				"/>
			</g>
		</g>
	</g>
</symbol>
<g id="Layer_2">
	<rect id="XMLID_940_" class="st2" width="2000" height="2000"/>
</g>
<g id="Layer_28">
	<g id="XMLID_1289_">
		<g id="XMLID_3_">
			<circle id="XMLID_370_" class="st3" cx="972.4" cy="1075" r="409.3"/>
			<g id="XMLID_6_">
				<g id="XMLID_457_">
					<g id="XMLID_523_">
						<path id="XMLID_527_" class="st2" d="M678.1,1353.4v-171.1c0-11.3,9.2-20.5,20.5-20.5l0,0c11.3,0,20.5,9.2,20.5,20.5v171.1"/>
						<path id="XMLID_526_" class="st2" d="M719.1,1353.4v-64.3c0-11.3,9.2-20.5,20.5-20.5l0,0c11.3,0,20.5,9.2,20.5,20.5v64.3"/>
						<path id="XMLID_525_" class="st2" d="M678.1,1353.5l-53.1-53.3c-8-8-21-8.1-29,0v0c-8,8-8,21,0,29l12,12
							c26.4,26.5,41.2,62.4,41.2,99.8v31.7c0,9.5,2.3,18.8,6.8,27.2v0c10.1,18.9,29.7,30.7,51.1,30.7h72.8c17.7,0,34.4-8.1,45.4-22
							l4.5-5.7c8.1-10.2,12.5-22.9,12.5-35.9v-113.4v-10c0-11.3-9.2-20.5-20.5-20.5h0c-11.3,0-20.5,9.2-20.5,20.5v10"/>
						<path id="XMLID_524_" class="st2" d="M760.1,1353.4v-37.2c0-11.3,9.2-20.5,20.5-20.5l0,0c11.3,0,20.5,9.2,20.5,20.5v37.2"/>
					</g>
					<path id="XMLID_458_" class="st2" d="M804.7,1588.8H679.4c-4.1,0-7.4-3.3-7.4-7.4v-43.2c0-4.1,3.3-7.4,7.4-7.4h125.3
						c4.1,0,7.4,3.3,7.4,7.4v43.2C812.2,1585.5,808.8,1588.8,804.7,1588.8z"/>
				</g>
				<g id="XMLID_172_">
					<g id="XMLID_143_">
						<path id="XMLID_144_" class="st4" d="M678.1,1353.4v-171.1c0-11.3,9.2-20.5,20.5-20.5l0,0c11.3,0,20.5,9.2,20.5,20.5v171.1"/>
						<path id="XMLID_148_" class="st4" d="M719.1,1353.4v-64.3c0-11.3,9.2-20.5,20.5-20.5l0,0c11.3,0,20.5,9.2,20.5,20.5v64.3"/>
						<path id="XMLID_123_" class="st4" d="M678.1,1353.5l-53.1-53.3c-8-8-21-8.1-29,0v0c-8,8-8,21,0,29l12,12
							c26.4,26.5,41.2,62.4,41.2,99.8v31.7c0,9.5,2.3,18.8,6.8,27.2v0c10.1,18.9,29.7,30.7,51.1,30.7h72.8c17.7,0,34.4-8.1,45.4-22
							l4.5-5.7c8.1-10.2,12.5-22.9,12.5-35.9v-113.4v-10c0-11.3-9.2-20.5-20.5-20.5h0c-11.3,0-20.5,9.2-20.5,20.5v10"/>
						<path id="XMLID_170_" class="st4" d="M760.1,1353.4v-37.2c0-11.3,9.2-20.5,20.5-20.5l0,0c11.3,0,20.5,9.2,20.5,20.5v37.2"/>
					</g>
					<path id="XMLID_171_" class="st4" d="M804.7,1588.8H679.4c-4.1,0-7.4-3.3-7.4-7.4v-43.2c0-4.1,3.3-7.4,7.4-7.4h125.3
						c4.1,0,7.4,3.3,7.4,7.4v43.2C812.2,1585.5,808.8,1588.8,804.7,1588.8z"/>
				</g>
			</g>
			<g id="XMLID_4_">
				<path id="XMLID_150_" class="st4" d="M707.8,618.6c8.2-4.8,16.6-9.3,25.2-13.7c8.9-4.5,17.9-8.8,26.9-12.8"/>
				<path id="XMLID_151_" class="st4" d="M639.6,665.6c7.4-6,14.9-11.8,22.7-17.4c8.1-5.9,16.3-11.5,24.5-16.8"/>
				<path id="XMLID_152_" class="st4" d="M579.7,722.8c6.3-7.1,12.9-14,19.7-20.8c7.1-7.1,14.3-13.9,21.6-20.4"/>
				<path id="XMLID_153_" class="st4" d="M529.4,788.5c5.2-8,10.6-15.8,16.2-23.6c5.9-8.1,11.9-15.9,18.1-23.6"/>
				<path id="XMLID_154_" class="st4" d="M490,861.4c3.9-8.7,8-17.3,12.3-25.9c4.5-8.9,9.3-17.6,14.2-26.1"/>
				<path id="XMLID_155_" class="st4" d="M462.6,939.5c2.4-9.2,5.2-18.3,8.1-27.5c3.1-9.5,6.4-18.8,10-28"/>
				<path id="XMLID_156_" class="st4" d="M447.6,1020.9c1-9.4,2.2-18.9,3.7-28.4c1.6-9.9,3.4-19.6,5.5-29.2"/>
				<path id="XMLID_157_" class="st4" d="M445.6,1103.7c-0.5-9.5-0.8-19-0.8-28.6c0-10,0.3-19.9,0.8-29.7"/>
				<path id="XMLID_158_" class="st4" d="M456.6,1185.7c-2-9.3-3.7-18.7-5.2-28.2c-1.6-9.9-2.8-19.7-3.8-29.5"/>
				<path id="XMLID_159_" class="st4" d="M480.2,1265.1c-3.4-8.9-6.6-17.9-9.6-27c-3.1-9.5-5.9-19-8.4-28.5"/>
				<path id="XMLID_160_" class="st4" d="M516,1339.7c-4.8-8.2-9.3-16.6-13.7-25.2c-4.5-8.9-8.8-17.9-12.8-26.9"/>
				<path id="XMLID_161_" class="st4" d="M563.1,1407.9c-6-7.4-11.8-14.9-17.4-22.7c-5.9-8.1-11.5-16.3-16.8-24.5"/>
				<path id="XMLID_166_" class="st4" d="M918.3,1599.8c-9.4-1-18.9-2.2-28.4-3.7c-9.9-1.6-19.6-3.4-29.2-5.5"/>
				<path id="XMLID_167_" class="st4" d="M1001.1,1601.9c-9.5,0.5-19,0.8-28.6,0.8c-10,0-19.9-0.3-29.7-0.8"/>
				<path id="XMLID_168_" class="st4" d="M1083.1,1590.9c-9.3,2-18.7,3.7-28.2,5.2c-9.9,1.6-19.7,2.8-29.5,3.8"/>
				<path id="XMLID_169_" class="st4" d="M1162.5,1567.2c-8.9,3.4-17.9,6.6-27,9.6c-9.5,3.1-19,5.9-28.5,8.4"/>
				<path id="XMLID_178_" class="st4" d="M1488.3,964.3c2,9.3,3.7,18.7,5.2,28.2c1.6,9.9,2.8,19.7,3.8,29.5"/>
				<path id="XMLID_179_" class="st4" d="M1464.6,885c3.4,8.9,6.6,17.9,9.6,27c3.1,9.5,5.9,19,8.4,28.5"/>
				<path id="XMLID_180_" class="st4" d="M1428.8,810.3c4.8,8.2,9.3,16.6,13.7,25.2c4.5,8.9,8.8,17.9,12.8,26.9"/>
				<path id="XMLID_181_" class="st4" d="M1381.8,742.2c6,7.4,11.8,14.9,17.4,22.7c5.9,8.1,11.5,16.3,16.8,24.5"/>
				<path id="XMLID_182_" class="st4" d="M1324.7,682.3c7.1,6.3,14,12.9,20.8,19.7c7.1,7.1,13.9,14.3,20.4,21.6"/>
				<path id="XMLID_183_" class="st4" d="M1258.9,632c8,5.2,15.8,10.6,23.6,16.2c8.1,5.9,15.9,11.9,23.6,18.1"/>
				<path id="XMLID_184_" class="st4" d="M1186.1,592.6c8.7,3.9,17.3,8,25.9,12.3c8.9,4.5,17.6,9.3,26.1,14.2"/>
			</g>
			<g id="XMLID_114_">
				<path id="XMLID_124_" class="st5" d="M1113.3,941.6H831.6c-23.4,0-42.3-18.9-42.3-42.3V439.7c0-23.4,18.9-42.3,42.3-42.3h281.8
					c23.4,0,42.3,18.9,42.3,42.3v459.6C1155.6,922.6,1136.7,941.6,1113.3,941.6z"/>
				<line id="XMLID_129_" class="st4" x1="791.3" y1="871.4" x2="1153.6" y2="871.4"/>
				<circle id="XMLID_128_" class="st4" cx="972.4" cy="906.5" r="18.7"/>
				<g id="XMLID_130_">
					<g id="XMLID_2088_">
						<line id="XMLID_2095_" class="st4" x1="816" y1="620" x2="1117.5" y2="620"/>
						<line id="XMLID_2094_" class="st4" x1="816" y1="668.8" x2="1117.5" y2="668.8"/>
						<line id="XMLID_2093_" class="st4" x1="816" y1="717.6" x2="1117.5" y2="717.6"/>
						<line id="XMLID_2092_" class="st4" x1="816" y1="766.4" x2="1117.5" y2="766.4"/>
						<line id="XMLID_2091_" class="st4" x1="816" y1="815.2" x2="1117.5" y2="815.2"/>
					</g>
				</g>
				<g id="XMLID_3229_">
					<path id="XMLID_3197_" class="st6" d="M1006.8,523.8h-68.8c-11.5,0-20.8,9.3-20.8,20.8v40.1h110.3v-40.1
						C1027.6,533,1018.3,523.8,1006.8,523.8z"/>
					<circle id="XMLID_3210_" class="st5" cx="972.4" cy="488.1" r="35.7"/>
				</g>
			</g>
			<g id="XMLID_113_">
				<polygon id="XMLID_145_" class="st6" points="1193.3,1219.6 1280.5,1302.8 1450.3,1153.4 1280.5,1377.7 1124.5,1219.6 				"/>
				<g id="XMLID_138_">
					<g id="XMLID_2315_">
						<polyline id="XMLID_2321_" class="st7" points="1225.2,1581.1 1138.4,1461.3 1285.6,1446 						"/>
						<polyline id="XMLID_2320_" class="st4" points="1368.6,933.5 1455.4,1053.4 1308.2,1068.6 						"/>
						<path id="XMLID_2319_" class="st4" d="M1083.9,1403.3c-28.5-41.5-45.2-91.8-45.2-146c0-142.6,115.6-258.2,258.2-258.2
							c59.7,0,114.7,20.3,158.5,54.3"/>
						<path id="XMLID_2318_" class="st4" d="M1509.9,1111.3c28.5,41.5,45.2,91.8,45.2,146c0,142.6-115.6,258.2-258.2,258.2
							c-59.7,0-114.7-20.3-158.5-54.3"/>
						<path id="XMLID_2317_" class="st4" d="M1531.4,1257.3c0,129.5-105,234.5-234.5,234.5c-44.8,0-86.6-12.5-122.2-34.3"/>
						<path id="XMLID_2316_" class="st4" d="M1062.8,1243.2c7.3-122.9,109.3-220.4,234.1-220.4c44.8,0,86.6,12.5,122.2,34.3"/>
					</g>
				</g>
			</g>
			<g id="XMLID_115_">
				<path id="XMLID_173_" class="st8" d="M987.1,1132h-442c-30.7,0-55.5-24.9-55.5-55.5v-29.2c0-30.7,24.9-55.5,55.5-55.5h442
					c30.7,0,55.5,24.9,55.5,55.5v29.2C1042.6,1107.2,1017.7,1132,987.1,1132z"/>
				<circle id="XMLID_174_" class="st4" cx="986.5" cy="1061.9" r="32.8"/>
			</g>
		</g>
		<g id="XMLID_1031_">
			<path id="XMLID_2330_" class="st9" d="M532.5,1084.2v-49.3h18.2c6.7,0,11.6,1.2,14.8,3.5c3.2,2.3,4.8,5.9,4.8,10.8
				c0,2.7-0.7,5.1-2.1,7c-1.4,1.9-3.6,3.6-6.5,4.9c1.2,0.4,2.3,1.2,3.3,2.2c1,1,1.8,2.4,2.6,4l7.9,16.9h-13.9l-6.3-14.2
				c-1-2.3-2.2-3.8-3.5-4.6c-1.3-0.8-3.1-1.3-5.5-1.3c-0.2,0-0.4,0-0.7,0c-0.3,0-0.5,0-0.7,0v20H532.5z M550.8,1055.1
				c2.3,0,4-0.5,5.1-1.4c1.1-1,1.7-2.4,1.7-4.3c0-1.9-0.6-3.3-1.7-4.2c-1.2-1-2.8-1.5-5-1.5h-5.9v11.5H550.8z"/>
			<path id="XMLID_3507_" class="st9" d="M586.5,1084.2v-49.3h32.9v9.1h-20.6v10h19.7v9.2h-19.7v11.8H620v9.2H586.5z"/>
			<path id="XMLID_3509_" class="st9" d="M680,1078.4c-3,2.3-6.2,3.9-9.6,5c-3.4,1.1-7.1,1.6-11.1,1.6c-3.9,0-7.4-0.6-10.7-1.8
				c-3.2-1.2-6-2.9-8.4-5.2c-2.5-2.4-4.4-5.1-5.7-8.3c-1.3-3.2-2-6.6-2-10.2c0-7.7,2.6-13.8,7.7-18.5c5.1-4.7,11.9-7,20.3-7
				c3.1,0,6.1,0.4,9.1,1.1c3,0.7,6.1,1.9,9.2,3.4v10.8c-3.3-1.7-6.4-2.9-9.3-3.7c-3-0.8-5.7-1.2-8.3-1.2c-5,0-8.9,1.3-11.7,4
				c-2.8,2.7-4.2,6.4-4.2,11.2c0,4.6,1.3,8.3,4,11c2.7,2.7,6.3,4.1,10.9,4.1c1.2,0,2.4-0.1,3.6-0.4c1.2-0.3,2.4-0.6,3.6-1.1v-6.2
				h-6.8v-9.3H680V1078.4z"/>
			<path id="XMLID_3512_" class="st9" d="M696.2,1084.2v-49.3h12.7v49.3H696.2z"/>
			<path id="XMLID_3515_" class="st9" d="M725.3,1080.2v-10.9c3.7,2.3,6.8,3.9,9.4,4.8c2.5,0.9,5,1.4,7.4,1.4c2.4,0,4.2-0.4,5.5-1.1
				c1.2-0.7,1.9-1.8,1.9-3.3c0-1.2-0.4-2.1-1.2-2.8c-0.8-0.7-2.6-1.6-5.4-2.6c-7-2.5-11.8-5-14.5-7.6c-2.6-2.6-4-5.8-4-9.8
				c0-4.2,1.7-7.6,5.2-10.2c3.4-2.6,7.9-3.9,13.4-3.9c2.8,0,5.6,0.3,8.4,1c2.8,0.7,5.6,1.7,8.3,3v10.1c-3.3-1.7-6.3-2.9-8.9-3.7
				c-2.6-0.8-5-1.2-7.2-1.2c-2.3,0-4.1,0.3-5.4,1c-1.2,0.7-1.8,1.7-1.8,2.9c0,1,0.6,2,1.7,2.9c1.1,0.9,2.8,1.8,5,2.6
				c0.5,0.2,1.2,0.5,2.1,0.8c4.7,1.7,8.1,3.2,10.1,4.5c2.1,1.3,3.7,3,4.8,5.1c1.1,2.1,1.6,4.5,1.6,7.3c0,4.6-1.7,8.1-5.2,10.7
				c-3.4,2.6-8.2,3.9-14.3,3.9c-3.1,0-6-0.4-8.9-1.2C730.6,1083,727.9,1081.8,725.3,1080.2z"/>
			<path id="XMLID_3517_" class="st9" d="M788.3,1084.2v-40.1H772v-9.2h45.6v9.2h-16.3v40.1H788.3z"/>
			<path id="XMLID_3519_" class="st9" d="M830.1,1084.2v-49.3H863v9.1h-20.6v10h19.7v9.2h-19.7v11.8h21.2v9.2H830.1z"/>
			<path id="XMLID_3521_" class="st9" d="M879,1084.2v-49.3h18.2c6.7,0,11.6,1.2,14.8,3.5c3.2,2.3,4.8,5.9,4.8,10.8
				c0,2.7-0.7,5.1-2.1,7c-1.4,1.9-3.6,3.6-6.5,4.9c1.2,0.4,2.3,1.2,3.3,2.2c1,1,1.8,2.4,2.6,4l7.9,16.9H908l-6.3-14.2
				c-1-2.3-2.2-3.8-3.5-4.6c-1.3-0.8-3.1-1.3-5.5-1.3c-0.2,0-0.4,0-0.7,0c-0.3,0-0.5,0-0.7,0v20H879z M897.3,1055.1
				c2.3,0,4-0.5,5.1-1.4c1.1-1,1.7-2.4,1.7-4.3c0-1.9-0.6-3.3-1.7-4.2c-1.2-1-2.8-1.5-5-1.5h-5.9v11.5H897.3z"/>
		</g>
	</g>
</g>
</svg>
